G04 -- Generated By PCBWeb Designer*
%FSLAX24Y24*%
%MOIN*%
%OFA0B0*%
%SFA1.0B1.0*%
%AMROTRECT*21,1,$1,$2,0,0,$3*%
%AMROTOBLONG*1,1,$7,$1,$2*1,1,$7,$3,$4*21,1,$5,$6,0,0,$8*%
%ADD10C,0.025*%
%ADD11R,0.045X0.045*%
%ADD12C,0.03*%
%ADD13R,0.055X0.055*%
%ADD14C,0.045*%
%ADD15C,0.055*%
%ADD16C,0.01*%
%ADD17C,0.008*%
%ADD18C,0.024*%
%ADD19C,0.035*%
%ADD20R,0.065X0.065*%
%ADD21C,0.032*%
%ADD22C,0.065*%
%ADD23C,0.005*%
%ADD24C,0.021*%
%ADD25R,0.0591X0.0512*%
%ADD26R,0.0691X0.0612*%
%ADD27R,0.0236X0.0315*%
%ADD28R,0.0336X0.0415*%
%ADD29C,0.033*%
%ADD30C,0.033*%
%ADD31C,0.026*%
%ADD32C,0.015*%
%ADD33C,0.031*%
%ADD34C,0.0*%
%ADD35C,0.0275*%
G01*
%LNSTD*%
%LPD*%
G54D11*
X26000Y10500D03*
G54D14*
X27000Y10500D03*
X26000Y11500D03*
X27000Y11500D03*
X26000Y12500D03*
X27000Y12500D03*
X26000Y13500D03*
X27000Y13500D03*
G54D13*
X27000Y8500D03*
G54D15*
X26000Y8500D03*
G54D13*
X27000Y15500D03*
G54D15*
X26000Y15500D03*
X25000Y15500D03*
G54D27*
X28250Y18000D03*
X27994Y18630D03*
X28506Y18630D03*
X25250Y22750D03*
X25506Y22120D03*
X24994Y22120D03*
G54D13*
X25000Y25500D03*
G54D15*
X26000Y25500D03*
G54D13*
X6000Y5500D03*
G54D15*
X5000Y5500D03*
G54D13*
X25000Y5500D03*
G54D15*
X26000Y5500D03*
G54D13*
X16500Y1500D03*
G54D15*
X17500Y1500D03*
G54D13*
X14500Y29500D03*
G54D15*
X13500Y29500D03*
G54D13*
X29500Y16500D03*
G54D15*
X29500Y17500D03*
G54D13*
X1700Y14500D03*
G54D15*
X1700Y13500D03*
G54D13*
X26750Y17300D03*
G54D15*
X25000Y17300D03*
G54D13*
X14500Y1500D03*
G54D15*
X13500Y1500D03*
G54D13*
X29500Y14500D03*
G54D15*
X29500Y13500D03*
G54D13*
X1700Y16500D03*
G54D15*
X1700Y17500D03*
G54D13*
X16500Y29500D03*
G54D15*
X17500Y29500D03*
G54D13*
X6000Y25500D03*
G54D15*
X5000Y25500D03*
X26500Y20000D03*
X25000Y20000D03*
G54D13*
X4000Y15500D03*
G54D15*
X5000Y15500D03*
G54D13*
X15700Y27500D03*
G54D15*
X15700Y26500D03*
G54D13*
X15500Y3500D03*
G54D15*
X15500Y4500D03*
G54D10*
X25000Y20000D02*
X25000Y15500D01*
X28506Y18630D02*
X28506Y19000D01*
X28250Y19250D01*
X25250Y19250D01*
X25000Y19000D01*
X25000Y15500D02*
X25000Y10750D01*
X25250Y10500D01*
X26000Y10500D01*
X24994Y22120D02*
X24994Y20000D01*
X25000Y20000D01*
X26000Y10500D02*
X26000Y9750D01*
X26250Y9500D01*
X26750Y9500D01*
X27000Y9250D01*
X27000Y8500D01*
X27000Y8500D01*
X5000Y25500D02*
X5000Y26000D01*
X5500Y26500D01*
X25500Y26500D01*
X26000Y26000D01*
X26000Y25500D01*
X5000Y5500D02*
X5000Y25500D01*
X17500Y29500D02*
X17500Y27000D01*
X17000Y26500D01*
X29500Y17500D02*
X30000Y17500D01*
X30500Y17000D01*
X26500Y20000D02*
X29000Y20000D01*
X30500Y18500D01*
X30500Y14000D01*
X30000Y13500D01*
X29500Y13500D01*
X1700Y17500D02*
X4500Y17500D01*
X5000Y18000D01*
X13000Y26500D02*
X13500Y27000D01*
X13500Y29500D01*
X29500Y13500D02*
X29500Y9500D01*
X27000Y6000D01*
X26500Y6000D01*
X26000Y5500D01*
X17500Y1500D02*
X17500Y4000D01*
X17000Y4500D01*
X13000Y4500D02*
X13500Y4000D01*
X13500Y1500D01*
X26000Y25500D02*
X26000Y25000D01*
X26500Y24500D01*
X26500Y20000D01*
X26500Y20000D01*
X5000Y5500D02*
X5000Y5000D01*
X5500Y4500D01*
X25500Y4500D01*
X26000Y5000D01*
X26000Y5500D01*
X5000Y14000D02*
X4500Y13500D01*
X1700Y13500D01*
G54D16*
X25500Y22000D02*
X25500Y21250D01*
G54D35*
X25500Y21250D03*
G54D16*
X27000Y10500D02*
X27250Y10500D01*
X27500Y10750D01*
X27500Y14500D01*
X27250Y14750D01*
X26250Y14750D01*
X26000Y15000D01*
X26000Y15500D01*
X26000Y15500D01*
X26000Y11500D02*
X26250Y11500D01*
X26500Y11250D01*
X26500Y10250D01*
X26750Y10000D01*
X27750Y10000D01*
X27994Y10244D01*
X28000Y16750D01*
X27750Y17000D01*
X27750Y18000D01*
X27994Y18250D01*
X27994Y18630D01*
G54D10*
X25000Y25500D02*
X6000Y25500D01*
X6000Y5500D02*
X25000Y5500D01*
X25000Y5500D01*
X6000Y25500D02*
X6000Y5500D01*
X25250Y22750D02*
X25250Y24750D01*
X25000Y25000D01*
X25000Y25500D01*
X29500Y16500D02*
X29500Y14500D01*
X28250Y18000D02*
X28250Y17000D01*
X28500Y16500D01*
X29500Y16500D01*
%LNERASE*%
%LPC*%
G54D12*
X26000Y10500D03*
X27000Y10500D03*
X26000Y11500D03*
X27000Y11500D03*
X26000Y12500D03*
X27000Y12500D03*
X26000Y13500D03*
X27000Y13500D03*
G54D19*
X27000Y8500D03*
G54D21*
X26000Y8500D03*
G54D19*
X27000Y15500D03*
G54D21*
X26000Y15500D03*
X25000Y15500D03*
G54D29*
X25000Y25500D03*
G54D30*
X26000Y25500D03*
G54D29*
X6000Y5500D03*
G54D30*
X5000Y5500D03*
G54D29*
X25000Y5500D03*
G54D30*
X26000Y5500D03*
G54D29*
X16500Y1500D03*
G54D30*
X17500Y1500D03*
G54D29*
X14500Y29500D03*
G54D30*
X13500Y29500D03*
G54D29*
X29500Y16500D03*
G54D30*
X29500Y17500D03*
G54D29*
X1700Y14500D03*
G54D30*
X1700Y13500D03*
G54D19*
X26750Y17300D03*
X25000Y17300D03*
G54D29*
X14500Y1500D03*
G54D30*
X13500Y1500D03*
G54D29*
X29500Y14500D03*
G54D30*
X29500Y13500D03*
G54D29*
X1700Y16500D03*
G54D30*
X1700Y17500D03*
G54D29*
X16500Y29500D03*
G54D30*
X17500Y29500D03*
G54D29*
X6000Y25500D03*
G54D30*
X5000Y25500D03*
G54D19*
X26500Y20000D03*
X25000Y20000D03*
G54D29*
X4000Y15500D03*
G54D30*
X5000Y15500D03*
G54D29*
X15700Y27500D03*
G54D30*
X15700Y26500D03*
G54D29*
X15500Y3500D03*
G54D30*
X15500Y4500D03*
M02*
