G04 -- Generated By PCBWeb Designer*
%FSLAX24Y24*%
%MOIN*%
%OFA0B0*%
%SFA1.0B1.0*%
%AMROTRECT*21,1,$1,$2,0,0,$3*%
%AMROTOBLONG*1,1,$7,$1,$2*1,1,$7,$3,$4*21,1,$5,$6,0,0,$8*%
%ADD10C,0.025*%
%ADD11R,0.045X0.045*%
%ADD12C,0.03*%
%ADD13R,0.055X0.055*%
%ADD14C,0.045*%
%ADD15C,0.055*%
%ADD16C,0.01*%
%ADD17C,0.008*%
%ADD18C,0.024*%
%ADD19C,0.035*%
%ADD20R,0.065X0.065*%
%ADD21C,0.032*%
%ADD22C,0.065*%
%ADD23C,0.005*%
%ADD24C,0.021*%
%ADD25R,0.0591X0.0512*%
%ADD26R,0.0691X0.0612*%
%ADD27R,0.0236X0.0315*%
%ADD28R,0.0336X0.0415*%
%ADD29C,0.033*%
%ADD30C,0.033*%
%ADD31C,0.026*%
%ADD32C,0.015*%
%ADD33C,0.031*%
%ADD34C,0.0*%
%ADD35C,0.0275*%
G01*
%LNERASE*%
%LPC*%
G54D18*
X16600Y11681D02*
X17125Y11681D01*
X17200Y11756D01*
X17200Y12019D01*
X17125Y12094D01*
X16600Y12094D01*
X17200Y12244D02*
X17200Y12469D01*
X17200Y12356D02*
X16600Y12356D01*
X16675Y12244D01*
G54D24*
X28955Y9681D02*
X28955Y9281D01*
X28780Y9281D01*
X28705Y9356D01*
X28705Y9431D01*
X28780Y9506D01*
X28955Y9506D01*
X28780Y9506D02*
X28680Y9681D01*
X28580Y9681D02*
X28430Y9681D01*
X28505Y9681D02*
X28505Y9281D01*
X28580Y9331D01*
G54D18*
X24781Y24100D02*
X24781Y23500D01*
X25119Y23500D01*
X25269Y24100D02*
X25719Y24100D01*
X25494Y24100D02*
X25494Y23500D01*
X25869Y23500D02*
X26094Y23500D01*
X25981Y23500D02*
X25981Y24100D01*
X25869Y24025D01*
X4575Y7400D02*
X4575Y6800D01*
X4912Y6800D01*
X5062Y7400D02*
X5512Y7400D01*
X5288Y7400D02*
X5288Y6800D01*
X5662Y7288D02*
X5775Y7400D01*
X5888Y7400D01*
X6000Y7288D01*
X6000Y7138D01*
X5925Y7062D01*
X5738Y7062D01*
X5662Y6988D01*
X5662Y6800D01*
X6000Y6800D01*
X24825Y7400D02*
X24825Y6800D01*
X25163Y6800D01*
X25313Y7400D02*
X25763Y7400D01*
X25538Y7400D02*
X25538Y6800D01*
X25913Y7325D02*
X25988Y7400D01*
X26175Y7400D01*
X26250Y7325D01*
X26250Y7175D01*
X26175Y7100D01*
X26063Y7100D01*
X26175Y7100D02*
X26250Y7025D01*
X26250Y6875D01*
X26175Y6800D01*
X25988Y6800D01*
X25913Y6875D01*
X17194Y3488D02*
X17081Y3600D01*
X16931Y3600D01*
X16819Y3488D01*
X16819Y3375D01*
X16894Y3300D01*
X17119Y3300D01*
X17194Y3225D01*
X17194Y3112D01*
X17081Y3000D01*
X16931Y3000D01*
X16819Y3112D01*
X17344Y3600D02*
X17344Y3000D01*
X17681Y3000D01*
X17831Y3000D02*
X18056Y3000D01*
X17944Y3000D02*
X17944Y3600D01*
X17831Y3525D01*
X13312Y28188D02*
X13200Y28300D01*
X13050Y28300D01*
X12938Y28188D01*
X12938Y28075D01*
X13012Y28000D01*
X13238Y28000D01*
X13312Y27925D01*
X13312Y27812D01*
X13200Y27700D01*
X13050Y27700D01*
X12938Y27812D01*
X13462Y28300D02*
X13462Y27700D01*
X13800Y27700D01*
X13950Y28188D02*
X14062Y28300D01*
X14175Y28300D01*
X14288Y28188D01*
X14288Y28038D01*
X14212Y27962D01*
X14025Y27962D01*
X13950Y27888D01*
X13950Y27700D01*
X14288Y27700D01*
X29175Y18750D02*
X29062Y18862D01*
X28912Y18862D01*
X28800Y18750D01*
X28800Y18638D01*
X28875Y18562D01*
X29100Y18562D01*
X29175Y18488D01*
X29175Y18375D01*
X29062Y18262D01*
X28912Y18262D01*
X28800Y18375D01*
X29325Y18862D02*
X29325Y18262D01*
X29662Y18262D01*
X29812Y18788D02*
X29888Y18862D01*
X30075Y18862D01*
X30150Y18788D01*
X30150Y18638D01*
X30075Y18562D01*
X29962Y18562D01*
X30075Y18562D02*
X30150Y18488D01*
X30150Y18338D01*
X30075Y18262D01*
X29888Y18262D01*
X29812Y18338D01*
X1375Y15706D02*
X1262Y15819D01*
X1112Y15819D01*
X1000Y15706D01*
X1000Y15594D01*
X1075Y15519D01*
X1300Y15519D01*
X1375Y15444D01*
X1375Y15331D01*
X1262Y15219D01*
X1112Y15219D01*
X1000Y15331D01*
X1525Y15819D02*
X1525Y15219D01*
X1862Y15219D01*
X2012Y15819D02*
X2012Y15481D01*
X2312Y15481D01*
X2238Y15744D02*
X2238Y15219D01*
X12894Y3488D02*
X12781Y3600D01*
X12631Y3600D01*
X12519Y3488D01*
X12519Y3375D01*
X12594Y3300D01*
X12819Y3300D01*
X12894Y3225D01*
X12894Y3112D01*
X12781Y3000D01*
X12631Y3000D01*
X12519Y3112D01*
X13044Y3600D02*
X13044Y3000D01*
X13381Y3000D01*
X13831Y3600D02*
X13531Y3600D01*
X13531Y3338D01*
X13756Y3338D01*
X13831Y3262D01*
X13831Y3075D01*
X13756Y3000D01*
X13531Y3000D01*
X29175Y15625D02*
X29062Y15738D01*
X28912Y15738D01*
X28800Y15625D01*
X28800Y15512D01*
X28875Y15438D01*
X29100Y15438D01*
X29175Y15362D01*
X29175Y15250D01*
X29062Y15138D01*
X28912Y15138D01*
X28800Y15250D01*
X29325Y15738D02*
X29325Y15138D01*
X29662Y15138D01*
X29925Y15738D02*
X29812Y15625D01*
X29812Y15212D01*
X29888Y15138D01*
X30075Y15138D01*
X30150Y15212D01*
X30150Y15362D01*
X30075Y15438D01*
X29888Y15438D01*
X29812Y15362D01*
X1475Y18850D02*
X1362Y18962D01*
X1212Y18962D01*
X1100Y18850D01*
X1100Y18738D01*
X1175Y18662D01*
X1400Y18662D01*
X1475Y18588D01*
X1475Y18475D01*
X1362Y18362D01*
X1212Y18362D01*
X1100Y18475D01*
X1625Y18962D02*
X1625Y18362D01*
X1962Y18362D01*
X2112Y18962D02*
X2450Y18962D01*
X2112Y18362D01*
X17438Y28188D02*
X17325Y28300D01*
X17175Y28300D01*
X17062Y28188D01*
X17062Y28075D01*
X17138Y28000D01*
X17362Y28000D01*
X17438Y27925D01*
X17438Y27812D01*
X17325Y27700D01*
X17175Y27700D01*
X17062Y27812D01*
X17588Y28300D02*
X17588Y27700D01*
X17925Y27700D01*
X18075Y27775D02*
X18150Y27700D01*
X18338Y27700D01*
X18412Y27775D01*
X18412Y27925D01*
X18338Y28000D01*
X18150Y28000D01*
X18075Y27925D01*
X18075Y27775D01*
X18075Y27775D01*
X18338Y28000D02*
X18412Y28075D01*
X18412Y28225D01*
X18338Y28300D01*
X18150Y28300D01*
X18075Y28225D01*
X18075Y28075D01*
X18150Y28000D01*
X4556Y24100D02*
X4556Y23500D01*
X4894Y23500D01*
X5044Y24100D02*
X5494Y24100D01*
X5269Y24100D02*
X5269Y23500D01*
X5644Y24100D02*
X5644Y23762D01*
X5944Y23762D01*
X5869Y24025D02*
X5869Y23500D01*
X4431Y17288D02*
X4319Y17400D01*
X4169Y17400D01*
X4056Y17288D01*
X4056Y17175D01*
X4131Y17100D01*
X4356Y17100D01*
X4431Y17025D01*
X4431Y16912D01*
X4319Y16800D01*
X4169Y16800D01*
X4056Y16912D01*
X4581Y17400D02*
X4581Y16800D01*
X4919Y16800D01*
X5069Y17325D02*
X5144Y17400D01*
X5331Y17400D01*
X5406Y17325D01*
X5406Y17175D01*
X5331Y17100D01*
X5144Y17100D01*
X5069Y17175D01*
X5069Y17325D01*
X5069Y17325D01*
X5406Y17175D02*
X5406Y16800D01*
X15075Y25469D02*
X14962Y25581D01*
X14812Y25581D01*
X14700Y25469D01*
X14700Y25356D01*
X14775Y25281D01*
X15000Y25281D01*
X15075Y25206D01*
X15075Y25094D01*
X14962Y24981D01*
X14812Y24981D01*
X14700Y25094D01*
X15225Y25581D02*
X15225Y24981D01*
X15562Y24981D01*
X15712Y24981D02*
X15938Y24981D01*
X15825Y24981D02*
X15825Y25581D01*
X15712Y25506D01*
X16088Y25131D02*
X16125Y25056D01*
X16162Y25019D01*
X16238Y24981D01*
X16388Y24981D01*
X16462Y25019D01*
X16500Y25056D01*
X16538Y25131D01*
X16538Y25431D01*
X16500Y25506D01*
X16462Y25544D01*
X16388Y25581D01*
X16238Y25581D01*
X16162Y25544D01*
X16125Y25506D01*
X16088Y25431D01*
X16088Y25131D01*
X16088Y25131D01*
X16088Y24981D02*
X16538Y25581D01*
X14875Y6119D02*
X14762Y6231D01*
X14612Y6231D01*
X14500Y6119D01*
X14500Y6006D01*
X14575Y5931D01*
X14800Y5931D01*
X14875Y5856D01*
X14875Y5744D01*
X14762Y5631D01*
X14612Y5631D01*
X14500Y5744D01*
X15025Y6231D02*
X15025Y5631D01*
X15362Y5631D01*
X15512Y5631D02*
X15738Y5631D01*
X15625Y5631D02*
X15625Y6231D01*
X15512Y6156D01*
X15888Y5631D02*
X16112Y5631D01*
X16000Y5631D02*
X16000Y6231D01*
X15888Y6156D01*
G54D33*
X10025Y23275D02*
X9800Y23500D01*
X9425Y23500D01*
X9200Y23275D01*
X9200Y22525D01*
X9425Y22300D01*
X9800Y22300D01*
X10025Y22525D01*
X10400Y23500D02*
X10400Y22300D01*
X10700Y22450D02*
X10850Y22300D01*
X11075Y22300D01*
X11225Y22450D01*
X11225Y22825D01*
X11075Y22975D01*
X10850Y22975D01*
X10700Y22825D01*
X10700Y22450D01*
X11225Y22300D02*
X11225Y22975D01*
X12012Y22862D02*
X11900Y22975D01*
X11638Y22975D01*
X11525Y22862D01*
X11525Y22712D01*
X11600Y22638D01*
X11938Y22638D01*
X12012Y22562D01*
X12012Y22412D01*
X11900Y22300D01*
X11638Y22300D01*
X11525Y22412D01*
X12800Y22862D02*
X12688Y22975D01*
X12425Y22975D01*
X12312Y22862D01*
X12312Y22712D01*
X12388Y22638D01*
X12725Y22638D01*
X12800Y22562D01*
X12800Y22412D01*
X12688Y22300D01*
X12425Y22300D01*
X12312Y22412D01*
X13156Y22319D02*
X13156Y23238D01*
X13119Y23275D02*
X13156Y23312D01*
X13194Y23275D01*
X13156Y23238D01*
X13119Y23275D01*
X14019Y22825D02*
X13869Y22975D01*
X13644Y22975D01*
X13494Y22825D01*
X13494Y22450D01*
X13644Y22300D01*
X13869Y22300D01*
X14019Y22450D01*
X15144Y23275D02*
X14919Y23500D01*
X14544Y23500D01*
X14319Y23275D01*
X14319Y22525D01*
X14544Y22300D01*
X14919Y22300D01*
X15144Y22525D01*
X15444Y22450D02*
X15594Y22300D01*
X15819Y22300D01*
X15969Y22450D01*
X15969Y22825D01*
X15819Y22975D01*
X15594Y22975D01*
X15444Y22825D01*
X15444Y22450D01*
X15969Y22300D02*
X15969Y22975D01*
X16269Y22975D02*
X16269Y22300D01*
X16719Y22862D02*
X16606Y22975D01*
X16381Y22975D01*
X16269Y22862D01*
X16269Y22825D01*
X17769Y23275D02*
X17544Y23500D01*
X17244Y23500D01*
X17019Y23275D01*
X17019Y23050D01*
X17169Y22900D01*
X17619Y22900D01*
X17769Y22750D01*
X17769Y22525D01*
X17544Y22300D01*
X17244Y22300D01*
X17019Y22525D01*
X18125Y22319D02*
X18125Y23238D01*
X18088Y23275D02*
X18125Y23312D01*
X18162Y23275D01*
X18125Y23238D01*
X18088Y23275D01*
X18462Y22750D02*
X18462Y22825D01*
X18612Y22975D01*
X18838Y22975D01*
X18988Y22825D01*
X18988Y22450D01*
X18838Y22300D01*
X18612Y22300D01*
X18462Y22450D01*
X18462Y22750D01*
X18988Y22975D02*
X18988Y22150D01*
X18838Y22000D01*
X18612Y22000D01*
X18462Y22150D01*
X19288Y22975D02*
X19288Y22300D01*
X19288Y22862D02*
X19400Y22975D01*
X19700Y22975D01*
X19812Y22862D01*
X19812Y22300D01*
X20112Y22450D02*
X20262Y22300D01*
X20488Y22300D01*
X20638Y22450D01*
X20638Y22825D01*
X20488Y22975D01*
X20262Y22975D01*
X20112Y22825D01*
X20112Y22450D01*
X20638Y22300D02*
X20638Y22975D01*
X21012Y23500D02*
X21012Y22300D01*
X21800Y22862D02*
X21688Y22975D01*
X21425Y22975D01*
X21312Y22862D01*
X21312Y22712D01*
X21388Y22638D01*
X21725Y22638D01*
X21800Y22562D01*
X21800Y22412D01*
X21688Y22300D01*
X21425Y22300D01*
X21312Y22412D01*
X9300Y17300D02*
X9300Y18500D01*
X9675Y17675D01*
X10050Y18500D01*
X10050Y17300D01*
X10462Y17975D02*
X10350Y17862D01*
X10350Y17412D01*
X10462Y17300D01*
X10762Y17300D01*
X10875Y17412D01*
X10875Y17862D01*
X10762Y17975D01*
X10462Y17975D01*
X11175Y17450D02*
X11175Y17825D01*
X11325Y17975D01*
X11550Y17975D01*
X11700Y17825D01*
X11700Y17450D01*
X11550Y17300D01*
X11325Y17300D01*
X11175Y17450D01*
X11700Y17300D02*
X11700Y18500D01*
X12000Y17975D02*
X12000Y17412D01*
X12112Y17300D01*
X12412Y17300D01*
X12525Y17412D01*
X12525Y17975D01*
X12525Y17450D02*
X12525Y17300D01*
X12900Y18500D02*
X12900Y17300D01*
X13725Y17450D02*
X13575Y17300D01*
X13350Y17300D01*
X13200Y17450D01*
X13200Y17825D01*
X13350Y17975D01*
X13575Y17975D01*
X13725Y17825D01*
X13725Y17675D01*
X13200Y17675D01*
X10050Y20775D02*
X9825Y21000D01*
X9525Y21000D01*
X9300Y20775D01*
X9300Y20550D01*
X9450Y20400D01*
X9900Y20400D01*
X10050Y20250D01*
X10050Y20025D01*
X9825Y19800D01*
X9525Y19800D01*
X9300Y20025D01*
X10350Y19800D02*
X10950Y21000D01*
X11250Y19800D02*
X11250Y21000D01*
X12000Y19800D01*
X12000Y21000D01*
G54D24*
X6100Y11900D02*
X6500Y11900D01*
X6500Y11750D01*
X6450Y11700D01*
X6350Y11700D01*
X6300Y11750D01*
X6300Y11900D01*
X6275Y11425D02*
X6325Y11475D01*
X6325Y11550D01*
X6275Y11600D01*
X6150Y11600D01*
X6100Y11550D01*
X6100Y11475D01*
X6150Y11425D01*
X6100Y11325D02*
X6500Y11325D01*
X6150Y11325D02*
X6100Y11275D01*
X6100Y11200D01*
X6150Y11150D01*
X6275Y11150D01*
X6325Y11200D01*
X6325Y11275D01*
X6275Y11325D01*
X6125Y11050D02*
X6100Y11025D01*
X6125Y11000D01*
X6150Y11025D01*
X6125Y11050D01*
X6100Y10800D02*
X6500Y10800D01*
X6500Y10625D01*
X6425Y10550D01*
X6350Y10550D01*
X6275Y10625D01*
X6275Y10800D01*
X6275Y10625D02*
X6100Y10525D01*
X6150Y10250D02*
X6100Y10300D01*
X6100Y10375D01*
X6150Y10425D01*
X6275Y10425D01*
X6325Y10375D01*
X6325Y10300D01*
X6275Y10250D01*
X6225Y10250D01*
X6225Y10425D01*
X6325Y10150D02*
X6100Y10075D01*
X6325Y10000D01*
X6125Y9900D02*
X6100Y9875D01*
X6125Y9850D01*
X6150Y9875D01*
X6125Y9900D01*
X6250Y9692D02*
X6250Y9508D01*
X6100Y9750D02*
X6500Y9600D01*
X6100Y9450D01*
%LNSTD*%
%LPD*%
G54D16*
X27500Y9000D02*
X27500Y15000D01*
X17500Y15000D01*
X17500Y9000D01*
X27500Y9000D01*
X27500Y9000D01*
G54D17*
X16600Y11681D02*
X17125Y11681D01*
X17200Y11756D01*
X17200Y12019D01*
X17125Y12094D01*
X16600Y12094D01*
X17200Y12244D02*
X17200Y12469D01*
X17200Y12356D02*
X16600Y12356D01*
X16675Y12244D01*
G54D23*
X28955Y9681D02*
X28955Y9281D01*
X28780Y9281D01*
X28705Y9356D01*
X28705Y9431D01*
X28780Y9506D01*
X28955Y9506D01*
X28780Y9506D02*
X28680Y9681D01*
X28580Y9681D02*
X28430Y9681D01*
X28505Y9681D02*
X28505Y9281D01*
X28580Y9331D01*
G54D16*
X24500Y25000D02*
X24522Y24960D01*
X24545Y24920D01*
X24570Y24882D01*
X24597Y24845D01*
X24625Y24809D01*
X24655Y24774D01*
X24686Y24740D01*
X24719Y24708D01*
X24753Y24677D01*
X24788Y24648D01*
X24824Y24620D01*
X24862Y24594D01*
X24900Y24569D01*
X24940Y24546D01*
X24981Y24525D01*
X25022Y24505D01*
X25064Y24487D01*
X25107Y24471D01*
X25150Y24456D01*
X25195Y24444D01*
X25239Y24433D01*
X25284Y24425D01*
X25329Y24418D01*
X25375Y24413D01*
X25421Y24410D01*
X25466Y24409D01*
X25512Y24409D01*
X25558Y24412D01*
X25604Y24417D01*
X25649Y24423D01*
X25694Y24432D01*
X25739Y24442D01*
X25783Y24454D01*
X25826Y24468D01*
X25869Y24484D01*
X25912Y24502D01*
X25953Y24521D01*
X25994Y24542D01*
X26033Y24565D01*
X26072Y24590D01*
X26110Y24616D01*
X26146Y24643D01*
X26182Y24672D01*
X26216Y24703D01*
X26249Y24735D01*
X26280Y24768D01*
X26310Y24803D01*
X26339Y24839D01*
X26366Y24876D01*
X26391Y24914D01*
X26415Y24953D01*
X26437Y24993D01*
X26457Y25034D01*
X26476Y25076D01*
X26493Y25119D01*
X26508Y25162D01*
X26521Y25206D01*
X26533Y25250D01*
X26542Y25295D01*
X26550Y25340D01*
X26556Y25386D01*
X26559Y25431D01*
X26561Y25477D01*
X26561Y25523D01*
X26559Y25569D01*
X26556Y25614D01*
X26550Y25660D01*
X26542Y25705D01*
X26533Y25750D01*
X26521Y25794D01*
X26508Y25838D01*
X26493Y25881D01*
X26476Y25924D01*
X26457Y25966D01*
X26437Y26007D01*
X26415Y26047D01*
X26391Y26086D01*
X26366Y26124D01*
X26339Y26161D01*
X26310Y26197D01*
X26280Y26232D01*
X26249Y26265D01*
X26216Y26297D01*
X26182Y26328D01*
X26146Y26357D01*
X26110Y26384D01*
X26072Y26410D01*
X26033Y26435D01*
X25994Y26458D01*
X25953Y26479D01*
X25912Y26498D01*
X25869Y26516D01*
X25826Y26532D01*
X25783Y26546D01*
X25739Y26558D01*
X25694Y26568D01*
X25649Y26577D01*
X25604Y26583D01*
X25558Y26588D01*
X25512Y26591D01*
X25466Y26591D01*
X25421Y26590D01*
X25375Y26587D01*
X25329Y26582D01*
X25284Y26575D01*
X25239Y26567D01*
X25195Y26556D01*
X25150Y26544D01*
X25107Y26529D01*
X25064Y26513D01*
X25022Y26495D01*
X24981Y26475D01*
X24940Y26454D01*
X24900Y26431D01*
X24862Y26406D01*
X24824Y26380D01*
X24788Y26352D01*
X24753Y26323D01*
X24719Y26292D01*
X24686Y26260D01*
X24655Y26226D01*
X24625Y26191D01*
X24597Y26155D01*
X24570Y26118D01*
X24545Y26080D01*
X24522Y26040D01*
X24500Y26000D01*
X24500Y26000D01*
X24500Y25000D02*
X24500Y26000D01*
G54D17*
X24781Y24100D02*
X24781Y23500D01*
X25119Y23500D01*
X25269Y24100D02*
X25719Y24100D01*
X25494Y24100D02*
X25494Y23500D01*
X25869Y23500D02*
X26094Y23500D01*
X25981Y23500D02*
X25981Y24100D01*
X25869Y24025D01*
G54D16*
X6500Y6000D02*
X6478Y6040D01*
X6455Y6080D01*
X6430Y6118D01*
X6403Y6155D01*
X6375Y6191D01*
X6345Y6226D01*
X6314Y6260D01*
X6281Y6292D01*
X6247Y6323D01*
X6212Y6352D01*
X6176Y6380D01*
X6138Y6406D01*
X6100Y6431D01*
X6060Y6454D01*
X6019Y6475D01*
X5978Y6495D01*
X5936Y6513D01*
X5893Y6529D01*
X5850Y6544D01*
X5805Y6556D01*
X5761Y6567D01*
X5716Y6575D01*
X5671Y6582D01*
X5625Y6587D01*
X5579Y6590D01*
X5534Y6591D01*
X5488Y6591D01*
X5442Y6588D01*
X5396Y6583D01*
X5351Y6577D01*
X5306Y6568D01*
X5261Y6558D01*
X5217Y6546D01*
X5174Y6532D01*
X5131Y6516D01*
X5088Y6498D01*
X5047Y6479D01*
X5006Y6458D01*
X4967Y6435D01*
X4928Y6410D01*
X4890Y6384D01*
X4854Y6357D01*
X4818Y6328D01*
X4784Y6297D01*
X4751Y6265D01*
X4720Y6232D01*
X4690Y6197D01*
X4661Y6161D01*
X4634Y6124D01*
X4609Y6086D01*
X4585Y6047D01*
X4563Y6007D01*
X4543Y5966D01*
X4524Y5924D01*
X4507Y5881D01*
X4492Y5838D01*
X4479Y5794D01*
X4467Y5750D01*
X4458Y5705D01*
X4450Y5660D01*
X4444Y5614D01*
X4441Y5569D01*
X4439Y5523D01*
X4439Y5477D01*
X4441Y5431D01*
X4444Y5386D01*
X4450Y5340D01*
X4458Y5295D01*
X4467Y5250D01*
X4479Y5206D01*
X4492Y5162D01*
X4507Y5119D01*
X4524Y5076D01*
X4543Y5034D01*
X4563Y4993D01*
X4585Y4953D01*
X4609Y4914D01*
X4634Y4876D01*
X4661Y4839D01*
X4690Y4803D01*
X4720Y4768D01*
X4751Y4735D01*
X4784Y4703D01*
X4818Y4672D01*
X4854Y4643D01*
X4890Y4616D01*
X4928Y4590D01*
X4967Y4565D01*
X5006Y4542D01*
X5047Y4521D01*
X5088Y4502D01*
X5131Y4484D01*
X5174Y4468D01*
X5217Y4454D01*
X5261Y4442D01*
X5306Y4432D01*
X5351Y4423D01*
X5396Y4417D01*
X5442Y4412D01*
X5488Y4409D01*
X5534Y4409D01*
X5579Y4410D01*
X5625Y4413D01*
X5671Y4418D01*
X5716Y4425D01*
X5761Y4433D01*
X5805Y4444D01*
X5850Y4456D01*
X5893Y4471D01*
X5936Y4487D01*
X5978Y4505D01*
X6019Y4525D01*
X6060Y4546D01*
X6100Y4569D01*
X6138Y4594D01*
X6176Y4620D01*
X6212Y4648D01*
X6247Y4677D01*
X6281Y4708D01*
X6314Y4740D01*
X6345Y4774D01*
X6375Y4809D01*
X6403Y4845D01*
X6430Y4882D01*
X6455Y4920D01*
X6478Y4960D01*
X6500Y5000D01*
X6500Y5000D01*
X6500Y6000D02*
X6500Y5000D01*
G54D17*
X4575Y7400D02*
X4575Y6800D01*
X4912Y6800D01*
X5062Y7400D02*
X5512Y7400D01*
X5288Y7400D02*
X5288Y6800D01*
X5662Y7288D02*
X5775Y7400D01*
X5888Y7400D01*
X6000Y7288D01*
X6000Y7138D01*
X5925Y7062D01*
X5738Y7062D01*
X5662Y6988D01*
X5662Y6800D01*
X6000Y6800D01*
G54D16*
X24500Y5000D02*
X24522Y4960D01*
X24545Y4920D01*
X24570Y4882D01*
X24597Y4845D01*
X24625Y4809D01*
X24655Y4774D01*
X24686Y4740D01*
X24719Y4708D01*
X24753Y4677D01*
X24788Y4648D01*
X24824Y4620D01*
X24862Y4594D01*
X24900Y4569D01*
X24940Y4546D01*
X24981Y4525D01*
X25022Y4505D01*
X25064Y4487D01*
X25107Y4471D01*
X25150Y4456D01*
X25195Y4444D01*
X25239Y4433D01*
X25284Y4425D01*
X25329Y4418D01*
X25375Y4413D01*
X25421Y4410D01*
X25466Y4409D01*
X25512Y4409D01*
X25558Y4412D01*
X25604Y4417D01*
X25649Y4423D01*
X25694Y4432D01*
X25739Y4442D01*
X25783Y4454D01*
X25826Y4468D01*
X25869Y4484D01*
X25912Y4502D01*
X25953Y4521D01*
X25994Y4542D01*
X26033Y4565D01*
X26072Y4590D01*
X26110Y4616D01*
X26146Y4643D01*
X26182Y4672D01*
X26216Y4703D01*
X26249Y4735D01*
X26280Y4768D01*
X26310Y4803D01*
X26339Y4839D01*
X26366Y4876D01*
X26391Y4914D01*
X26415Y4953D01*
X26437Y4993D01*
X26457Y5034D01*
X26476Y5076D01*
X26493Y5119D01*
X26508Y5162D01*
X26521Y5206D01*
X26533Y5250D01*
X26542Y5295D01*
X26550Y5340D01*
X26556Y5386D01*
X26559Y5431D01*
X26561Y5477D01*
X26561Y5523D01*
X26559Y5569D01*
X26556Y5614D01*
X26550Y5660D01*
X26542Y5705D01*
X26533Y5750D01*
X26521Y5794D01*
X26508Y5838D01*
X26493Y5881D01*
X26476Y5924D01*
X26457Y5966D01*
X26437Y6007D01*
X26415Y6047D01*
X26391Y6086D01*
X26366Y6124D01*
X26339Y6161D01*
X26310Y6197D01*
X26280Y6232D01*
X26249Y6265D01*
X26216Y6297D01*
X26182Y6328D01*
X26146Y6357D01*
X26110Y6384D01*
X26072Y6410D01*
X26033Y6435D01*
X25994Y6458D01*
X25953Y6479D01*
X25912Y6498D01*
X25869Y6516D01*
X25826Y6532D01*
X25783Y6546D01*
X25739Y6558D01*
X25694Y6568D01*
X25649Y6577D01*
X25604Y6583D01*
X25558Y6588D01*
X25512Y6591D01*
X25466Y6591D01*
X25421Y6590D01*
X25375Y6587D01*
X25329Y6582D01*
X25284Y6575D01*
X25239Y6567D01*
X25195Y6556D01*
X25150Y6544D01*
X25107Y6529D01*
X25064Y6513D01*
X25022Y6495D01*
X24981Y6475D01*
X24940Y6454D01*
X24900Y6431D01*
X24862Y6406D01*
X24824Y6380D01*
X24788Y6352D01*
X24753Y6323D01*
X24719Y6292D01*
X24686Y6260D01*
X24655Y6226D01*
X24625Y6191D01*
X24597Y6155D01*
X24570Y6118D01*
X24545Y6080D01*
X24522Y6040D01*
X24500Y6000D01*
X24500Y6000D01*
X24500Y5000D02*
X24500Y6000D01*
G54D17*
X24825Y7400D02*
X24825Y6800D01*
X25163Y6800D01*
X25313Y7400D02*
X25763Y7400D01*
X25538Y7400D02*
X25538Y6800D01*
X25913Y7325D02*
X25988Y7400D01*
X26175Y7400D01*
X26250Y7325D01*
X26250Y7175D01*
X26175Y7100D01*
X26063Y7100D01*
X26175Y7100D02*
X26250Y7025D01*
X26250Y6875D01*
X26175Y6800D01*
X25988Y6800D01*
X25913Y6875D01*
G54D16*
X16000Y1000D02*
X16022Y960D01*
X16045Y920D01*
X16070Y882D01*
X16097Y845D01*
X16125Y809D01*
X16155Y774D01*
X16186Y740D01*
X16219Y708D01*
X16253Y677D01*
X16288Y648D01*
X16324Y620D01*
X16362Y594D01*
X16400Y569D01*
X16440Y546D01*
X16481Y525D01*
X16522Y505D01*
X16564Y487D01*
X16607Y471D01*
X16650Y456D01*
X16695Y444D01*
X16739Y433D01*
X16784Y425D01*
X16829Y418D01*
X16875Y413D01*
X16921Y410D01*
X16966Y409D01*
X17012Y409D01*
X17058Y412D01*
X17104Y417D01*
X17149Y423D01*
X17194Y432D01*
X17239Y442D01*
X17283Y454D01*
X17326Y468D01*
X17369Y484D01*
X17412Y502D01*
X17453Y521D01*
X17494Y542D01*
X17533Y565D01*
X17572Y590D01*
X17610Y616D01*
X17646Y643D01*
X17682Y672D01*
X17716Y703D01*
X17749Y735D01*
X17780Y768D01*
X17810Y803D01*
X17839Y839D01*
X17866Y876D01*
X17891Y914D01*
X17915Y953D01*
X17937Y993D01*
X17957Y1034D01*
X17976Y1076D01*
X17993Y1119D01*
X18008Y1162D01*
X18021Y1206D01*
X18033Y1250D01*
X18042Y1295D01*
X18050Y1340D01*
X18056Y1386D01*
X18059Y1431D01*
X18061Y1477D01*
X18061Y1523D01*
X18059Y1569D01*
X18056Y1614D01*
X18050Y1660D01*
X18042Y1705D01*
X18033Y1750D01*
X18021Y1794D01*
X18008Y1838D01*
X17993Y1881D01*
X17976Y1924D01*
X17957Y1966D01*
X17937Y2007D01*
X17915Y2047D01*
X17891Y2086D01*
X17866Y2124D01*
X17839Y2161D01*
X17810Y2197D01*
X17780Y2232D01*
X17749Y2265D01*
X17716Y2297D01*
X17682Y2328D01*
X17646Y2357D01*
X17610Y2384D01*
X17572Y2410D01*
X17533Y2435D01*
X17494Y2458D01*
X17453Y2479D01*
X17412Y2498D01*
X17369Y2516D01*
X17326Y2532D01*
X17283Y2546D01*
X17239Y2558D01*
X17194Y2568D01*
X17149Y2577D01*
X17104Y2583D01*
X17058Y2588D01*
X17012Y2591D01*
X16966Y2591D01*
X16921Y2590D01*
X16875Y2587D01*
X16829Y2582D01*
X16784Y2575D01*
X16739Y2567D01*
X16695Y2556D01*
X16650Y2544D01*
X16607Y2529D01*
X16564Y2513D01*
X16522Y2495D01*
X16481Y2475D01*
X16440Y2454D01*
X16400Y2431D01*
X16362Y2406D01*
X16324Y2380D01*
X16288Y2352D01*
X16253Y2323D01*
X16219Y2292D01*
X16186Y2260D01*
X16155Y2226D01*
X16125Y2191D01*
X16097Y2155D01*
X16070Y2118D01*
X16045Y2080D01*
X16022Y2040D01*
X16000Y2000D01*
X16000Y2000D01*
X16000Y1000D02*
X16000Y2000D01*
G54D17*
X17194Y3488D02*
X17081Y3600D01*
X16931Y3600D01*
X16819Y3488D01*
X16819Y3375D01*
X16894Y3300D01*
X17119Y3300D01*
X17194Y3225D01*
X17194Y3112D01*
X17081Y3000D01*
X16931Y3000D01*
X16819Y3112D01*
X17344Y3600D02*
X17344Y3000D01*
X17681Y3000D01*
X17831Y3000D02*
X18056Y3000D01*
X17944Y3000D02*
X17944Y3600D01*
X17831Y3525D01*
G54D16*
X15000Y30000D02*
X14978Y30040D01*
X14955Y30080D01*
X14930Y30118D01*
X14903Y30155D01*
X14875Y30191D01*
X14845Y30226D01*
X14814Y30260D01*
X14781Y30292D01*
X14747Y30323D01*
X14712Y30352D01*
X14676Y30380D01*
X14638Y30406D01*
X14600Y30431D01*
X14560Y30454D01*
X14519Y30475D01*
X14478Y30495D01*
X14436Y30513D01*
X14393Y30529D01*
X14350Y30544D01*
X14305Y30556D01*
X14261Y30567D01*
X14216Y30575D01*
X14171Y30582D01*
X14125Y30587D01*
X14079Y30590D01*
X14034Y30591D01*
X13988Y30591D01*
X13942Y30588D01*
X13896Y30583D01*
X13851Y30577D01*
X13806Y30568D01*
X13761Y30558D01*
X13717Y30546D01*
X13674Y30532D01*
X13631Y30516D01*
X13588Y30498D01*
X13547Y30479D01*
X13506Y30458D01*
X13467Y30435D01*
X13428Y30410D01*
X13390Y30384D01*
X13354Y30357D01*
X13318Y30328D01*
X13284Y30297D01*
X13251Y30265D01*
X13220Y30232D01*
X13190Y30197D01*
X13161Y30161D01*
X13134Y30124D01*
X13109Y30086D01*
X13085Y30047D01*
X13063Y30007D01*
X13043Y29966D01*
X13024Y29924D01*
X13007Y29881D01*
X12992Y29838D01*
X12979Y29794D01*
X12967Y29750D01*
X12958Y29705D01*
X12950Y29660D01*
X12944Y29614D01*
X12941Y29569D01*
X12939Y29523D01*
X12939Y29477D01*
X12941Y29431D01*
X12944Y29386D01*
X12950Y29340D01*
X12958Y29295D01*
X12967Y29250D01*
X12979Y29206D01*
X12992Y29162D01*
X13007Y29119D01*
X13024Y29076D01*
X13043Y29034D01*
X13063Y28993D01*
X13085Y28953D01*
X13109Y28914D01*
X13134Y28876D01*
X13161Y28839D01*
X13190Y28803D01*
X13220Y28768D01*
X13251Y28735D01*
X13284Y28703D01*
X13318Y28672D01*
X13354Y28643D01*
X13390Y28616D01*
X13428Y28590D01*
X13467Y28565D01*
X13506Y28542D01*
X13547Y28521D01*
X13588Y28502D01*
X13631Y28484D01*
X13674Y28468D01*
X13717Y28454D01*
X13761Y28442D01*
X13806Y28432D01*
X13851Y28423D01*
X13896Y28417D01*
X13942Y28412D01*
X13988Y28409D01*
X14034Y28409D01*
X14079Y28410D01*
X14125Y28413D01*
X14171Y28418D01*
X14216Y28425D01*
X14261Y28433D01*
X14305Y28444D01*
X14350Y28456D01*
X14393Y28471D01*
X14436Y28487D01*
X14478Y28505D01*
X14519Y28525D01*
X14560Y28546D01*
X14600Y28569D01*
X14638Y28594D01*
X14676Y28620D01*
X14712Y28648D01*
X14747Y28677D01*
X14781Y28708D01*
X14814Y28740D01*
X14845Y28774D01*
X14875Y28809D01*
X14903Y28845D01*
X14930Y28882D01*
X14955Y28920D01*
X14978Y28960D01*
X15000Y29000D01*
X15000Y29000D01*
X15000Y30000D02*
X15000Y29000D01*
G54D17*
X13312Y28188D02*
X13200Y28300D01*
X13050Y28300D01*
X12938Y28188D01*
X12938Y28075D01*
X13012Y28000D01*
X13238Y28000D01*
X13312Y27925D01*
X13312Y27812D01*
X13200Y27700D01*
X13050Y27700D01*
X12938Y27812D01*
X13462Y28300D02*
X13462Y27700D01*
X13800Y27700D01*
X13950Y28188D02*
X14062Y28300D01*
X14175Y28300D01*
X14288Y28188D01*
X14288Y28038D01*
X14212Y27962D01*
X14025Y27962D01*
X13950Y27888D01*
X13950Y27700D01*
X14288Y27700D01*
G54D16*
X30000Y16000D02*
X30040Y16022D01*
X30080Y16045D01*
X30118Y16070D01*
X30155Y16097D01*
X30191Y16125D01*
X30226Y16155D01*
X30260Y16186D01*
X30292Y16219D01*
X30323Y16253D01*
X30352Y16288D01*
X30380Y16324D01*
X30406Y16362D01*
X30431Y16400D01*
X30454Y16440D01*
X30475Y16481D01*
X30495Y16522D01*
X30513Y16564D01*
X30529Y16607D01*
X30544Y16650D01*
X30556Y16695D01*
X30567Y16739D01*
X30575Y16784D01*
X30582Y16829D01*
X30587Y16875D01*
X30590Y16921D01*
X30591Y16966D01*
X30591Y17012D01*
X30588Y17058D01*
X30583Y17104D01*
X30577Y17149D01*
X30568Y17194D01*
X30558Y17239D01*
X30546Y17283D01*
X30532Y17326D01*
X30516Y17369D01*
X30498Y17412D01*
X30479Y17453D01*
X30458Y17494D01*
X30435Y17533D01*
X30410Y17572D01*
X30384Y17610D01*
X30357Y17646D01*
X30328Y17682D01*
X30297Y17716D01*
X30265Y17749D01*
X30232Y17780D01*
X30197Y17810D01*
X30161Y17839D01*
X30124Y17866D01*
X30086Y17891D01*
X30047Y17915D01*
X30007Y17937D01*
X29966Y17957D01*
X29924Y17976D01*
X29881Y17993D01*
X29838Y18008D01*
X29794Y18021D01*
X29750Y18033D01*
X29705Y18042D01*
X29660Y18050D01*
X29614Y18056D01*
X29569Y18059D01*
X29523Y18061D01*
X29477Y18061D01*
X29431Y18059D01*
X29386Y18056D01*
X29340Y18050D01*
X29295Y18042D01*
X29250Y18033D01*
X29206Y18021D01*
X29162Y18008D01*
X29119Y17993D01*
X29076Y17976D01*
X29034Y17957D01*
X28993Y17937D01*
X28953Y17915D01*
X28914Y17891D01*
X28876Y17866D01*
X28839Y17839D01*
X28803Y17810D01*
X28768Y17780D01*
X28735Y17749D01*
X28703Y17716D01*
X28672Y17682D01*
X28643Y17646D01*
X28616Y17610D01*
X28590Y17572D01*
X28565Y17533D01*
X28542Y17494D01*
X28521Y17453D01*
X28502Y17412D01*
X28484Y17369D01*
X28468Y17326D01*
X28454Y17283D01*
X28442Y17239D01*
X28432Y17194D01*
X28423Y17149D01*
X28417Y17104D01*
X28412Y17058D01*
X28409Y17012D01*
X28409Y16966D01*
X28410Y16921D01*
X28413Y16875D01*
X28418Y16829D01*
X28425Y16784D01*
X28433Y16739D01*
X28444Y16695D01*
X28456Y16650D01*
X28471Y16607D01*
X28487Y16564D01*
X28505Y16522D01*
X28525Y16481D01*
X28546Y16440D01*
X28569Y16400D01*
X28594Y16362D01*
X28620Y16324D01*
X28648Y16288D01*
X28677Y16253D01*
X28708Y16219D01*
X28740Y16186D01*
X28774Y16155D01*
X28809Y16125D01*
X28845Y16097D01*
X28882Y16070D01*
X28920Y16045D01*
X28960Y16022D01*
X29000Y16000D01*
X29000Y16000D01*
X30000Y16000D02*
X29000Y16000D01*
G54D17*
X29175Y18750D02*
X29062Y18862D01*
X28912Y18862D01*
X28800Y18750D01*
X28800Y18638D01*
X28875Y18562D01*
X29100Y18562D01*
X29175Y18488D01*
X29175Y18375D01*
X29062Y18262D01*
X28912Y18262D01*
X28800Y18375D01*
X29325Y18862D02*
X29325Y18262D01*
X29662Y18262D01*
X29812Y18788D02*
X29888Y18862D01*
X30075Y18862D01*
X30150Y18788D01*
X30150Y18638D01*
X30075Y18562D01*
X29962Y18562D01*
X30075Y18562D02*
X30150Y18488D01*
X30150Y18338D01*
X30075Y18262D01*
X29888Y18262D01*
X29812Y18338D01*
G54D16*
X1200Y15000D02*
X1160Y14978D01*
X1120Y14955D01*
X1082Y14930D01*
X1045Y14903D01*
X1009Y14875D01*
X974Y14845D01*
X940Y14814D01*
X908Y14781D01*
X877Y14747D01*
X848Y14712D01*
X820Y14676D01*
X794Y14638D01*
X769Y14600D01*
X746Y14560D01*
X725Y14519D01*
X705Y14478D01*
X687Y14436D01*
X671Y14393D01*
X656Y14350D01*
X644Y14305D01*
X633Y14261D01*
X625Y14216D01*
X618Y14171D01*
X613Y14125D01*
X610Y14079D01*
X609Y14034D01*
X609Y13988D01*
X612Y13942D01*
X617Y13896D01*
X623Y13851D01*
X632Y13806D01*
X642Y13761D01*
X654Y13717D01*
X668Y13674D01*
X684Y13631D01*
X702Y13588D01*
X721Y13547D01*
X742Y13506D01*
X765Y13467D01*
X790Y13428D01*
X816Y13390D01*
X843Y13354D01*
X872Y13318D01*
X903Y13284D01*
X935Y13251D01*
X968Y13220D01*
X1003Y13190D01*
X1039Y13161D01*
X1076Y13134D01*
X1114Y13109D01*
X1153Y13085D01*
X1193Y13063D01*
X1234Y13043D01*
X1276Y13024D01*
X1319Y13007D01*
X1362Y12992D01*
X1406Y12979D01*
X1450Y12967D01*
X1495Y12958D01*
X1540Y12950D01*
X1586Y12944D01*
X1631Y12941D01*
X1677Y12939D01*
X1723Y12939D01*
X1769Y12941D01*
X1814Y12944D01*
X1860Y12950D01*
X1905Y12958D01*
X1950Y12967D01*
X1994Y12979D01*
X2038Y12992D01*
X2081Y13007D01*
X2124Y13024D01*
X2166Y13043D01*
X2207Y13063D01*
X2247Y13085D01*
X2286Y13109D01*
X2324Y13134D01*
X2361Y13161D01*
X2397Y13190D01*
X2432Y13220D01*
X2465Y13251D01*
X2497Y13284D01*
X2528Y13318D01*
X2557Y13354D01*
X2584Y13390D01*
X2610Y13428D01*
X2635Y13467D01*
X2658Y13506D01*
X2679Y13547D01*
X2698Y13588D01*
X2716Y13631D01*
X2732Y13674D01*
X2746Y13717D01*
X2758Y13761D01*
X2768Y13806D01*
X2777Y13851D01*
X2783Y13896D01*
X2788Y13942D01*
X2791Y13988D01*
X2791Y14034D01*
X2790Y14079D01*
X2787Y14125D01*
X2782Y14171D01*
X2775Y14216D01*
X2767Y14261D01*
X2756Y14305D01*
X2744Y14350D01*
X2729Y14393D01*
X2713Y14436D01*
X2695Y14478D01*
X2675Y14519D01*
X2654Y14560D01*
X2631Y14600D01*
X2606Y14638D01*
X2580Y14676D01*
X2552Y14712D01*
X2523Y14747D01*
X2492Y14781D01*
X2460Y14814D01*
X2426Y14845D01*
X2391Y14875D01*
X2355Y14903D01*
X2318Y14930D01*
X2280Y14955D01*
X2240Y14978D01*
X2200Y15000D01*
X2200Y15000D01*
X1200Y15000D02*
X2200Y15000D01*
G54D17*
X1375Y15706D02*
X1262Y15819D01*
X1112Y15819D01*
X1000Y15706D01*
X1000Y15594D01*
X1075Y15519D01*
X1300Y15519D01*
X1375Y15444D01*
X1375Y15331D01*
X1262Y15219D01*
X1112Y15219D01*
X1000Y15331D01*
X1525Y15819D02*
X1525Y15219D01*
X1862Y15219D01*
X2012Y15819D02*
X2012Y15481D01*
X2312Y15481D01*
X2238Y15744D02*
X2238Y15219D01*
G54D16*
X15000Y2000D02*
X14978Y2040D01*
X14955Y2080D01*
X14930Y2118D01*
X14903Y2155D01*
X14875Y2191D01*
X14845Y2226D01*
X14814Y2260D01*
X14781Y2292D01*
X14747Y2323D01*
X14712Y2352D01*
X14676Y2380D01*
X14638Y2406D01*
X14600Y2431D01*
X14560Y2454D01*
X14519Y2475D01*
X14478Y2495D01*
X14436Y2513D01*
X14393Y2529D01*
X14350Y2544D01*
X14305Y2556D01*
X14261Y2567D01*
X14216Y2575D01*
X14171Y2582D01*
X14125Y2587D01*
X14079Y2590D01*
X14034Y2591D01*
X13988Y2591D01*
X13942Y2588D01*
X13896Y2583D01*
X13851Y2577D01*
X13806Y2568D01*
X13761Y2558D01*
X13717Y2546D01*
X13674Y2532D01*
X13631Y2516D01*
X13588Y2498D01*
X13547Y2479D01*
X13506Y2458D01*
X13467Y2435D01*
X13428Y2410D01*
X13390Y2384D01*
X13354Y2357D01*
X13318Y2328D01*
X13284Y2297D01*
X13251Y2265D01*
X13220Y2232D01*
X13190Y2197D01*
X13161Y2161D01*
X13134Y2124D01*
X13109Y2086D01*
X13085Y2047D01*
X13063Y2007D01*
X13043Y1966D01*
X13024Y1924D01*
X13007Y1881D01*
X12992Y1838D01*
X12979Y1794D01*
X12967Y1750D01*
X12958Y1705D01*
X12950Y1660D01*
X12944Y1614D01*
X12941Y1569D01*
X12939Y1523D01*
X12939Y1477D01*
X12941Y1431D01*
X12944Y1386D01*
X12950Y1340D01*
X12958Y1295D01*
X12967Y1250D01*
X12979Y1206D01*
X12992Y1162D01*
X13007Y1119D01*
X13024Y1076D01*
X13043Y1034D01*
X13063Y993D01*
X13085Y953D01*
X13109Y914D01*
X13134Y876D01*
X13161Y839D01*
X13190Y803D01*
X13220Y768D01*
X13251Y735D01*
X13284Y703D01*
X13318Y672D01*
X13354Y643D01*
X13390Y616D01*
X13428Y590D01*
X13467Y565D01*
X13506Y542D01*
X13547Y521D01*
X13588Y502D01*
X13631Y484D01*
X13674Y468D01*
X13717Y454D01*
X13761Y442D01*
X13806Y432D01*
X13851Y423D01*
X13896Y417D01*
X13942Y412D01*
X13988Y409D01*
X14034Y409D01*
X14079Y410D01*
X14125Y413D01*
X14171Y418D01*
X14216Y425D01*
X14261Y433D01*
X14305Y444D01*
X14350Y456D01*
X14393Y471D01*
X14436Y487D01*
X14478Y505D01*
X14519Y525D01*
X14560Y546D01*
X14600Y569D01*
X14638Y594D01*
X14676Y620D01*
X14712Y648D01*
X14747Y677D01*
X14781Y708D01*
X14814Y740D01*
X14845Y774D01*
X14875Y809D01*
X14903Y845D01*
X14930Y882D01*
X14955Y920D01*
X14978Y960D01*
X15000Y1000D01*
X15000Y1000D01*
X15000Y2000D02*
X15000Y1000D01*
G54D17*
X12894Y3488D02*
X12781Y3600D01*
X12631Y3600D01*
X12519Y3488D01*
X12519Y3375D01*
X12594Y3300D01*
X12819Y3300D01*
X12894Y3225D01*
X12894Y3112D01*
X12781Y3000D01*
X12631Y3000D01*
X12519Y3112D01*
X13044Y3600D02*
X13044Y3000D01*
X13381Y3000D01*
X13831Y3600D02*
X13531Y3600D01*
X13531Y3338D01*
X13756Y3338D01*
X13831Y3262D01*
X13831Y3075D01*
X13756Y3000D01*
X13531Y3000D01*
G54D16*
X29000Y15000D02*
X28960Y14978D01*
X28920Y14955D01*
X28882Y14930D01*
X28845Y14903D01*
X28809Y14875D01*
X28774Y14845D01*
X28740Y14814D01*
X28708Y14781D01*
X28677Y14747D01*
X28648Y14712D01*
X28620Y14676D01*
X28594Y14638D01*
X28569Y14600D01*
X28546Y14560D01*
X28525Y14519D01*
X28505Y14478D01*
X28487Y14436D01*
X28471Y14393D01*
X28456Y14350D01*
X28444Y14305D01*
X28433Y14261D01*
X28425Y14216D01*
X28418Y14171D01*
X28413Y14125D01*
X28410Y14079D01*
X28409Y14034D01*
X28409Y13988D01*
X28412Y13942D01*
X28417Y13896D01*
X28423Y13851D01*
X28432Y13806D01*
X28442Y13761D01*
X28454Y13717D01*
X28468Y13674D01*
X28484Y13631D01*
X28502Y13588D01*
X28521Y13547D01*
X28542Y13506D01*
X28565Y13467D01*
X28590Y13428D01*
X28616Y13390D01*
X28643Y13354D01*
X28672Y13318D01*
X28703Y13284D01*
X28735Y13251D01*
X28768Y13220D01*
X28803Y13190D01*
X28839Y13161D01*
X28876Y13134D01*
X28914Y13109D01*
X28953Y13085D01*
X28993Y13063D01*
X29034Y13043D01*
X29076Y13024D01*
X29119Y13007D01*
X29162Y12992D01*
X29206Y12979D01*
X29250Y12967D01*
X29295Y12958D01*
X29340Y12950D01*
X29386Y12944D01*
X29431Y12941D01*
X29477Y12939D01*
X29523Y12939D01*
X29569Y12941D01*
X29614Y12944D01*
X29660Y12950D01*
X29705Y12958D01*
X29750Y12967D01*
X29794Y12979D01*
X29838Y12992D01*
X29881Y13007D01*
X29924Y13024D01*
X29966Y13043D01*
X30007Y13063D01*
X30047Y13085D01*
X30086Y13109D01*
X30124Y13134D01*
X30161Y13161D01*
X30197Y13190D01*
X30232Y13220D01*
X30265Y13251D01*
X30297Y13284D01*
X30328Y13318D01*
X30357Y13354D01*
X30384Y13390D01*
X30410Y13428D01*
X30435Y13467D01*
X30458Y13506D01*
X30479Y13547D01*
X30498Y13588D01*
X30516Y13631D01*
X30532Y13674D01*
X30546Y13717D01*
X30558Y13761D01*
X30568Y13806D01*
X30577Y13851D01*
X30583Y13896D01*
X30588Y13942D01*
X30591Y13988D01*
X30591Y14034D01*
X30590Y14079D01*
X30587Y14125D01*
X30582Y14171D01*
X30575Y14216D01*
X30567Y14261D01*
X30556Y14305D01*
X30544Y14350D01*
X30529Y14393D01*
X30513Y14436D01*
X30495Y14478D01*
X30475Y14519D01*
X30454Y14560D01*
X30431Y14600D01*
X30406Y14638D01*
X30380Y14676D01*
X30352Y14712D01*
X30323Y14747D01*
X30292Y14781D01*
X30260Y14814D01*
X30226Y14845D01*
X30191Y14875D01*
X30155Y14903D01*
X30118Y14930D01*
X30080Y14955D01*
X30040Y14978D01*
X30000Y15000D01*
X30000Y15000D01*
X29000Y15000D02*
X30000Y15000D01*
G54D17*
X29175Y15625D02*
X29062Y15738D01*
X28912Y15738D01*
X28800Y15625D01*
X28800Y15512D01*
X28875Y15438D01*
X29100Y15438D01*
X29175Y15362D01*
X29175Y15250D01*
X29062Y15138D01*
X28912Y15138D01*
X28800Y15250D01*
X29325Y15738D02*
X29325Y15138D01*
X29662Y15138D01*
X29925Y15738D02*
X29812Y15625D01*
X29812Y15212D01*
X29888Y15138D01*
X30075Y15138D01*
X30150Y15212D01*
X30150Y15362D01*
X30075Y15438D01*
X29888Y15438D01*
X29812Y15362D01*
G54D16*
X2200Y16000D02*
X2240Y16022D01*
X2280Y16045D01*
X2318Y16070D01*
X2355Y16097D01*
X2391Y16125D01*
X2426Y16155D01*
X2460Y16186D01*
X2492Y16219D01*
X2523Y16253D01*
X2552Y16288D01*
X2580Y16324D01*
X2606Y16362D01*
X2631Y16400D01*
X2654Y16440D01*
X2675Y16481D01*
X2695Y16522D01*
X2713Y16564D01*
X2729Y16607D01*
X2744Y16650D01*
X2756Y16695D01*
X2767Y16739D01*
X2775Y16784D01*
X2782Y16829D01*
X2787Y16875D01*
X2790Y16921D01*
X2791Y16966D01*
X2791Y17012D01*
X2788Y17058D01*
X2783Y17104D01*
X2777Y17149D01*
X2768Y17194D01*
X2758Y17239D01*
X2746Y17283D01*
X2732Y17326D01*
X2716Y17369D01*
X2698Y17412D01*
X2679Y17453D01*
X2658Y17494D01*
X2635Y17533D01*
X2610Y17572D01*
X2584Y17610D01*
X2557Y17646D01*
X2528Y17682D01*
X2497Y17716D01*
X2465Y17749D01*
X2432Y17780D01*
X2397Y17810D01*
X2361Y17839D01*
X2324Y17866D01*
X2286Y17891D01*
X2247Y17915D01*
X2207Y17937D01*
X2166Y17957D01*
X2124Y17976D01*
X2081Y17993D01*
X2038Y18008D01*
X1994Y18021D01*
X1950Y18033D01*
X1905Y18042D01*
X1860Y18050D01*
X1814Y18056D01*
X1769Y18059D01*
X1723Y18061D01*
X1677Y18061D01*
X1631Y18059D01*
X1586Y18056D01*
X1540Y18050D01*
X1495Y18042D01*
X1450Y18033D01*
X1406Y18021D01*
X1362Y18008D01*
X1319Y17993D01*
X1276Y17976D01*
X1234Y17957D01*
X1193Y17937D01*
X1153Y17915D01*
X1114Y17891D01*
X1076Y17866D01*
X1039Y17839D01*
X1003Y17810D01*
X968Y17780D01*
X935Y17749D01*
X903Y17716D01*
X872Y17682D01*
X843Y17646D01*
X816Y17610D01*
X790Y17572D01*
X765Y17533D01*
X742Y17494D01*
X721Y17453D01*
X702Y17412D01*
X684Y17369D01*
X668Y17326D01*
X654Y17283D01*
X642Y17239D01*
X632Y17194D01*
X623Y17149D01*
X617Y17104D01*
X612Y17058D01*
X609Y17012D01*
X609Y16966D01*
X610Y16921D01*
X613Y16875D01*
X618Y16829D01*
X625Y16784D01*
X633Y16739D01*
X644Y16695D01*
X656Y16650D01*
X671Y16607D01*
X687Y16564D01*
X705Y16522D01*
X725Y16481D01*
X746Y16440D01*
X769Y16400D01*
X794Y16362D01*
X820Y16324D01*
X848Y16288D01*
X877Y16253D01*
X908Y16219D01*
X940Y16186D01*
X974Y16155D01*
X1009Y16125D01*
X1045Y16097D01*
X1082Y16070D01*
X1120Y16045D01*
X1160Y16022D01*
X1200Y16000D01*
X1200Y16000D01*
X2200Y16000D02*
X1200Y16000D01*
G54D17*
X1475Y18850D02*
X1362Y18962D01*
X1212Y18962D01*
X1100Y18850D01*
X1100Y18738D01*
X1175Y18662D01*
X1400Y18662D01*
X1475Y18588D01*
X1475Y18475D01*
X1362Y18362D01*
X1212Y18362D01*
X1100Y18475D01*
X1625Y18962D02*
X1625Y18362D01*
X1962Y18362D01*
X2112Y18962D02*
X2450Y18962D01*
X2112Y18362D01*
G54D16*
X16000Y29000D02*
X16022Y28960D01*
X16045Y28920D01*
X16070Y28882D01*
X16097Y28845D01*
X16125Y28809D01*
X16155Y28774D01*
X16186Y28740D01*
X16219Y28708D01*
X16253Y28677D01*
X16288Y28648D01*
X16324Y28620D01*
X16362Y28594D01*
X16400Y28569D01*
X16440Y28546D01*
X16481Y28525D01*
X16522Y28505D01*
X16564Y28487D01*
X16607Y28471D01*
X16650Y28456D01*
X16695Y28444D01*
X16739Y28433D01*
X16784Y28425D01*
X16829Y28418D01*
X16875Y28413D01*
X16921Y28410D01*
X16966Y28409D01*
X17012Y28409D01*
X17058Y28412D01*
X17104Y28417D01*
X17149Y28423D01*
X17194Y28432D01*
X17239Y28442D01*
X17283Y28454D01*
X17326Y28468D01*
X17369Y28484D01*
X17412Y28502D01*
X17453Y28521D01*
X17494Y28542D01*
X17533Y28565D01*
X17572Y28590D01*
X17610Y28616D01*
X17646Y28643D01*
X17682Y28672D01*
X17716Y28703D01*
X17749Y28735D01*
X17780Y28768D01*
X17810Y28803D01*
X17839Y28839D01*
X17866Y28876D01*
X17891Y28914D01*
X17915Y28953D01*
X17937Y28993D01*
X17957Y29034D01*
X17976Y29076D01*
X17993Y29119D01*
X18008Y29162D01*
X18021Y29206D01*
X18033Y29250D01*
X18042Y29295D01*
X18050Y29340D01*
X18056Y29386D01*
X18059Y29431D01*
X18061Y29477D01*
X18061Y29523D01*
X18059Y29569D01*
X18056Y29614D01*
X18050Y29660D01*
X18042Y29705D01*
X18033Y29750D01*
X18021Y29794D01*
X18008Y29838D01*
X17993Y29881D01*
X17976Y29924D01*
X17957Y29966D01*
X17937Y30007D01*
X17915Y30047D01*
X17891Y30086D01*
X17866Y30124D01*
X17839Y30161D01*
X17810Y30197D01*
X17780Y30232D01*
X17749Y30265D01*
X17716Y30297D01*
X17682Y30328D01*
X17646Y30357D01*
X17610Y30384D01*
X17572Y30410D01*
X17533Y30435D01*
X17494Y30458D01*
X17453Y30479D01*
X17412Y30498D01*
X17369Y30516D01*
X17326Y30532D01*
X17283Y30546D01*
X17239Y30558D01*
X17194Y30568D01*
X17149Y30577D01*
X17104Y30583D01*
X17058Y30588D01*
X17012Y30591D01*
X16966Y30591D01*
X16921Y30590D01*
X16875Y30587D01*
X16829Y30582D01*
X16784Y30575D01*
X16739Y30567D01*
X16695Y30556D01*
X16650Y30544D01*
X16607Y30529D01*
X16564Y30513D01*
X16522Y30495D01*
X16481Y30475D01*
X16440Y30454D01*
X16400Y30431D01*
X16362Y30406D01*
X16324Y30380D01*
X16288Y30352D01*
X16253Y30323D01*
X16219Y30292D01*
X16186Y30260D01*
X16155Y30226D01*
X16125Y30191D01*
X16097Y30155D01*
X16070Y30118D01*
X16045Y30080D01*
X16022Y30040D01*
X16000Y30000D01*
X16000Y30000D01*
X16000Y29000D02*
X16000Y30000D01*
G54D17*
X17438Y28188D02*
X17325Y28300D01*
X17175Y28300D01*
X17062Y28188D01*
X17062Y28075D01*
X17138Y28000D01*
X17362Y28000D01*
X17438Y27925D01*
X17438Y27812D01*
X17325Y27700D01*
X17175Y27700D01*
X17062Y27812D01*
X17588Y28300D02*
X17588Y27700D01*
X17925Y27700D01*
X18075Y27775D02*
X18150Y27700D01*
X18338Y27700D01*
X18412Y27775D01*
X18412Y27925D01*
X18338Y28000D01*
X18150Y28000D01*
X18075Y27925D01*
X18075Y27775D01*
X18075Y27775D01*
X18338Y28000D02*
X18412Y28075D01*
X18412Y28225D01*
X18338Y28300D01*
X18150Y28300D01*
X18075Y28225D01*
X18075Y28075D01*
X18150Y28000D01*
G54D16*
X6500Y26000D02*
X6478Y26040D01*
X6455Y26080D01*
X6430Y26118D01*
X6403Y26155D01*
X6375Y26191D01*
X6345Y26226D01*
X6314Y26260D01*
X6281Y26292D01*
X6247Y26323D01*
X6212Y26352D01*
X6176Y26380D01*
X6138Y26406D01*
X6100Y26431D01*
X6060Y26454D01*
X6019Y26475D01*
X5978Y26495D01*
X5936Y26513D01*
X5893Y26529D01*
X5850Y26544D01*
X5805Y26556D01*
X5761Y26567D01*
X5716Y26575D01*
X5671Y26582D01*
X5625Y26587D01*
X5579Y26590D01*
X5534Y26591D01*
X5488Y26591D01*
X5442Y26588D01*
X5396Y26583D01*
X5351Y26577D01*
X5306Y26568D01*
X5261Y26558D01*
X5217Y26546D01*
X5174Y26532D01*
X5131Y26516D01*
X5088Y26498D01*
X5047Y26479D01*
X5006Y26458D01*
X4967Y26435D01*
X4928Y26410D01*
X4890Y26384D01*
X4854Y26357D01*
X4818Y26328D01*
X4784Y26297D01*
X4751Y26265D01*
X4720Y26232D01*
X4690Y26197D01*
X4661Y26161D01*
X4634Y26124D01*
X4609Y26086D01*
X4585Y26047D01*
X4563Y26007D01*
X4543Y25966D01*
X4524Y25924D01*
X4507Y25881D01*
X4492Y25838D01*
X4479Y25794D01*
X4467Y25750D01*
X4458Y25705D01*
X4450Y25660D01*
X4444Y25614D01*
X4441Y25569D01*
X4439Y25523D01*
X4439Y25477D01*
X4441Y25431D01*
X4444Y25386D01*
X4450Y25340D01*
X4458Y25295D01*
X4467Y25250D01*
X4479Y25206D01*
X4492Y25162D01*
X4507Y25119D01*
X4524Y25076D01*
X4543Y25034D01*
X4563Y24993D01*
X4585Y24953D01*
X4609Y24914D01*
X4634Y24876D01*
X4661Y24839D01*
X4690Y24803D01*
X4720Y24768D01*
X4751Y24735D01*
X4784Y24703D01*
X4818Y24672D01*
X4854Y24643D01*
X4890Y24616D01*
X4928Y24590D01*
X4967Y24565D01*
X5006Y24542D01*
X5047Y24521D01*
X5088Y24502D01*
X5131Y24484D01*
X5174Y24468D01*
X5217Y24454D01*
X5261Y24442D01*
X5306Y24432D01*
X5351Y24423D01*
X5396Y24417D01*
X5442Y24412D01*
X5488Y24409D01*
X5534Y24409D01*
X5579Y24410D01*
X5625Y24413D01*
X5671Y24418D01*
X5716Y24425D01*
X5761Y24433D01*
X5805Y24444D01*
X5850Y24456D01*
X5893Y24471D01*
X5936Y24487D01*
X5978Y24505D01*
X6019Y24525D01*
X6060Y24546D01*
X6100Y24569D01*
X6138Y24594D01*
X6176Y24620D01*
X6212Y24648D01*
X6247Y24677D01*
X6281Y24708D01*
X6314Y24740D01*
X6345Y24774D01*
X6375Y24809D01*
X6403Y24845D01*
X6430Y24882D01*
X6455Y24920D01*
X6478Y24960D01*
X6500Y25000D01*
X6500Y25000D01*
X6500Y26000D02*
X6500Y25000D01*
G54D17*
X4556Y24100D02*
X4556Y23500D01*
X4894Y23500D01*
X5044Y24100D02*
X5494Y24100D01*
X5269Y24100D02*
X5269Y23500D01*
X5644Y24100D02*
X5644Y23762D01*
X5944Y23762D01*
X5869Y24025D02*
X5869Y23500D01*
G54D16*
X3500Y15000D02*
X3522Y14960D01*
X3545Y14920D01*
X3570Y14882D01*
X3597Y14845D01*
X3625Y14809D01*
X3655Y14774D01*
X3686Y14740D01*
X3719Y14708D01*
X3753Y14677D01*
X3788Y14648D01*
X3824Y14620D01*
X3862Y14594D01*
X3900Y14569D01*
X3940Y14546D01*
X3981Y14525D01*
X4022Y14505D01*
X4064Y14487D01*
X4107Y14471D01*
X4150Y14456D01*
X4195Y14444D01*
X4239Y14433D01*
X4284Y14425D01*
X4329Y14418D01*
X4375Y14413D01*
X4421Y14410D01*
X4466Y14409D01*
X4512Y14409D01*
X4558Y14412D01*
X4604Y14417D01*
X4649Y14423D01*
X4694Y14432D01*
X4739Y14442D01*
X4783Y14454D01*
X4826Y14468D01*
X4869Y14484D01*
X4912Y14502D01*
X4953Y14521D01*
X4994Y14542D01*
X5033Y14565D01*
X5072Y14590D01*
X5110Y14616D01*
X5146Y14643D01*
X5182Y14672D01*
X5216Y14703D01*
X5249Y14735D01*
X5280Y14768D01*
X5310Y14803D01*
X5339Y14839D01*
X5366Y14876D01*
X5391Y14914D01*
X5415Y14953D01*
X5437Y14993D01*
X5457Y15034D01*
X5476Y15076D01*
X5493Y15119D01*
X5508Y15162D01*
X5521Y15206D01*
X5533Y15250D01*
X5542Y15295D01*
X5550Y15340D01*
X5556Y15386D01*
X5559Y15431D01*
X5561Y15477D01*
X5561Y15523D01*
X5559Y15569D01*
X5556Y15614D01*
X5550Y15660D01*
X5542Y15705D01*
X5533Y15750D01*
X5521Y15794D01*
X5508Y15838D01*
X5493Y15881D01*
X5476Y15924D01*
X5457Y15966D01*
X5437Y16007D01*
X5415Y16047D01*
X5391Y16086D01*
X5366Y16124D01*
X5339Y16161D01*
X5310Y16197D01*
X5280Y16232D01*
X5249Y16265D01*
X5216Y16297D01*
X5182Y16328D01*
X5146Y16357D01*
X5110Y16384D01*
X5072Y16410D01*
X5033Y16435D01*
X4994Y16458D01*
X4953Y16479D01*
X4912Y16498D01*
X4869Y16516D01*
X4826Y16532D01*
X4783Y16546D01*
X4739Y16558D01*
X4694Y16568D01*
X4649Y16577D01*
X4604Y16583D01*
X4558Y16588D01*
X4512Y16591D01*
X4466Y16591D01*
X4421Y16590D01*
X4375Y16587D01*
X4329Y16582D01*
X4284Y16575D01*
X4239Y16567D01*
X4195Y16556D01*
X4150Y16544D01*
X4107Y16529D01*
X4064Y16513D01*
X4022Y16495D01*
X3981Y16475D01*
X3940Y16454D01*
X3900Y16431D01*
X3862Y16406D01*
X3824Y16380D01*
X3788Y16352D01*
X3753Y16323D01*
X3719Y16292D01*
X3686Y16260D01*
X3655Y16226D01*
X3625Y16191D01*
X3597Y16155D01*
X3570Y16118D01*
X3545Y16080D01*
X3522Y16040D01*
X3500Y16000D01*
X3500Y16000D01*
X3500Y15000D02*
X3500Y16000D01*
G54D17*
X4431Y17288D02*
X4319Y17400D01*
X4169Y17400D01*
X4056Y17288D01*
X4056Y17175D01*
X4131Y17100D01*
X4356Y17100D01*
X4431Y17025D01*
X4431Y16912D01*
X4319Y16800D01*
X4169Y16800D01*
X4056Y16912D01*
X4581Y17400D02*
X4581Y16800D01*
X4919Y16800D01*
X5069Y17325D02*
X5144Y17400D01*
X5331Y17400D01*
X5406Y17325D01*
X5406Y17175D01*
X5331Y17100D01*
X5144Y17100D01*
X5069Y17175D01*
X5069Y17325D01*
X5069Y17325D01*
X5406Y17175D02*
X5406Y16800D01*
G54D16*
X15200Y28000D02*
X15160Y27978D01*
X15120Y27955D01*
X15082Y27930D01*
X15045Y27903D01*
X15009Y27875D01*
X14974Y27845D01*
X14940Y27814D01*
X14908Y27781D01*
X14877Y27747D01*
X14848Y27712D01*
X14820Y27676D01*
X14794Y27638D01*
X14769Y27600D01*
X14746Y27560D01*
X14725Y27519D01*
X14705Y27478D01*
X14687Y27436D01*
X14671Y27393D01*
X14656Y27350D01*
X14644Y27305D01*
X14633Y27261D01*
X14625Y27216D01*
X14618Y27171D01*
X14613Y27125D01*
X14610Y27079D01*
X14609Y27034D01*
X14609Y26988D01*
X14612Y26942D01*
X14617Y26896D01*
X14623Y26851D01*
X14632Y26806D01*
X14642Y26761D01*
X14654Y26717D01*
X14668Y26674D01*
X14684Y26631D01*
X14702Y26588D01*
X14721Y26547D01*
X14742Y26506D01*
X14765Y26467D01*
X14790Y26428D01*
X14816Y26390D01*
X14843Y26354D01*
X14872Y26318D01*
X14903Y26284D01*
X14935Y26251D01*
X14968Y26220D01*
X15003Y26190D01*
X15039Y26161D01*
X15076Y26134D01*
X15114Y26109D01*
X15153Y26085D01*
X15193Y26063D01*
X15234Y26043D01*
X15276Y26024D01*
X15319Y26007D01*
X15362Y25992D01*
X15406Y25979D01*
X15450Y25967D01*
X15495Y25958D01*
X15540Y25950D01*
X15586Y25944D01*
X15631Y25941D01*
X15677Y25939D01*
X15723Y25939D01*
X15769Y25941D01*
X15814Y25944D01*
X15860Y25950D01*
X15905Y25958D01*
X15950Y25967D01*
X15994Y25979D01*
X16038Y25992D01*
X16081Y26007D01*
X16124Y26024D01*
X16166Y26043D01*
X16207Y26063D01*
X16247Y26085D01*
X16286Y26109D01*
X16324Y26134D01*
X16361Y26161D01*
X16397Y26190D01*
X16432Y26220D01*
X16465Y26251D01*
X16497Y26284D01*
X16528Y26318D01*
X16557Y26354D01*
X16584Y26390D01*
X16610Y26428D01*
X16635Y26467D01*
X16658Y26506D01*
X16679Y26547D01*
X16698Y26588D01*
X16716Y26631D01*
X16732Y26674D01*
X16746Y26717D01*
X16758Y26761D01*
X16768Y26806D01*
X16777Y26851D01*
X16783Y26896D01*
X16788Y26942D01*
X16791Y26988D01*
X16791Y27034D01*
X16790Y27079D01*
X16787Y27125D01*
X16782Y27171D01*
X16775Y27216D01*
X16767Y27261D01*
X16756Y27305D01*
X16744Y27350D01*
X16729Y27393D01*
X16713Y27436D01*
X16695Y27478D01*
X16675Y27519D01*
X16654Y27560D01*
X16631Y27600D01*
X16606Y27638D01*
X16580Y27676D01*
X16552Y27712D01*
X16523Y27747D01*
X16492Y27781D01*
X16460Y27814D01*
X16426Y27845D01*
X16391Y27875D01*
X16355Y27903D01*
X16318Y27930D01*
X16280Y27955D01*
X16240Y27978D01*
X16200Y28000D01*
X16200Y28000D01*
X15200Y28000D02*
X16200Y28000D01*
G54D17*
X15075Y25469D02*
X14962Y25581D01*
X14812Y25581D01*
X14700Y25469D01*
X14700Y25356D01*
X14775Y25281D01*
X15000Y25281D01*
X15075Y25206D01*
X15075Y25094D01*
X14962Y24981D01*
X14812Y24981D01*
X14700Y25094D01*
X15225Y25581D02*
X15225Y24981D01*
X15562Y24981D01*
X15712Y24981D02*
X15938Y24981D01*
X15825Y24981D02*
X15825Y25581D01*
X15712Y25506D01*
X16088Y25131D02*
X16125Y25056D01*
X16162Y25019D01*
X16238Y24981D01*
X16388Y24981D01*
X16462Y25019D01*
X16500Y25056D01*
X16538Y25131D01*
X16538Y25431D01*
X16500Y25506D01*
X16462Y25544D01*
X16388Y25581D01*
X16238Y25581D01*
X16162Y25544D01*
X16125Y25506D01*
X16088Y25431D01*
X16088Y25131D01*
X16088Y25131D01*
X16088Y24981D02*
X16538Y25581D01*
G54D16*
X16000Y3000D02*
X16040Y3022D01*
X16080Y3045D01*
X16118Y3070D01*
X16155Y3097D01*
X16191Y3125D01*
X16226Y3155D01*
X16260Y3186D01*
X16292Y3219D01*
X16323Y3253D01*
X16352Y3288D01*
X16380Y3324D01*
X16406Y3362D01*
X16431Y3400D01*
X16454Y3440D01*
X16475Y3481D01*
X16495Y3522D01*
X16513Y3564D01*
X16529Y3607D01*
X16544Y3650D01*
X16556Y3695D01*
X16567Y3739D01*
X16575Y3784D01*
X16582Y3829D01*
X16587Y3875D01*
X16590Y3921D01*
X16591Y3966D01*
X16591Y4012D01*
X16588Y4058D01*
X16583Y4104D01*
X16577Y4149D01*
X16568Y4194D01*
X16558Y4239D01*
X16546Y4283D01*
X16532Y4326D01*
X16516Y4369D01*
X16498Y4412D01*
X16479Y4453D01*
X16458Y4494D01*
X16435Y4533D01*
X16410Y4572D01*
X16384Y4610D01*
X16357Y4646D01*
X16328Y4682D01*
X16297Y4716D01*
X16265Y4749D01*
X16232Y4780D01*
X16197Y4810D01*
X16161Y4839D01*
X16124Y4866D01*
X16086Y4891D01*
X16047Y4915D01*
X16007Y4937D01*
X15966Y4957D01*
X15924Y4976D01*
X15881Y4993D01*
X15838Y5008D01*
X15794Y5021D01*
X15750Y5033D01*
X15705Y5042D01*
X15660Y5050D01*
X15614Y5056D01*
X15569Y5059D01*
X15523Y5061D01*
X15477Y5061D01*
X15431Y5059D01*
X15386Y5056D01*
X15340Y5050D01*
X15295Y5042D01*
X15250Y5033D01*
X15206Y5021D01*
X15162Y5008D01*
X15119Y4993D01*
X15076Y4976D01*
X15034Y4957D01*
X14993Y4937D01*
X14953Y4915D01*
X14914Y4891D01*
X14876Y4866D01*
X14839Y4839D01*
X14803Y4810D01*
X14768Y4780D01*
X14735Y4749D01*
X14703Y4716D01*
X14672Y4682D01*
X14643Y4646D01*
X14616Y4610D01*
X14590Y4572D01*
X14565Y4533D01*
X14542Y4494D01*
X14521Y4453D01*
X14502Y4412D01*
X14484Y4369D01*
X14468Y4326D01*
X14454Y4283D01*
X14442Y4239D01*
X14432Y4194D01*
X14423Y4149D01*
X14417Y4104D01*
X14412Y4058D01*
X14409Y4012D01*
X14409Y3966D01*
X14410Y3921D01*
X14413Y3875D01*
X14418Y3829D01*
X14425Y3784D01*
X14433Y3739D01*
X14444Y3695D01*
X14456Y3650D01*
X14471Y3607D01*
X14487Y3564D01*
X14505Y3522D01*
X14525Y3481D01*
X14546Y3440D01*
X14569Y3400D01*
X14594Y3362D01*
X14620Y3324D01*
X14648Y3288D01*
X14677Y3253D01*
X14708Y3219D01*
X14740Y3186D01*
X14774Y3155D01*
X14809Y3125D01*
X14845Y3097D01*
X14882Y3070D01*
X14920Y3045D01*
X14960Y3022D01*
X15000Y3000D01*
X15000Y3000D01*
X16000Y3000D02*
X15000Y3000D01*
G54D17*
X14875Y6119D02*
X14762Y6231D01*
X14612Y6231D01*
X14500Y6119D01*
X14500Y6006D01*
X14575Y5931D01*
X14800Y5931D01*
X14875Y5856D01*
X14875Y5744D01*
X14762Y5631D01*
X14612Y5631D01*
X14500Y5744D01*
X15025Y6231D02*
X15025Y5631D01*
X15362Y5631D01*
X15512Y5631D02*
X15738Y5631D01*
X15625Y5631D02*
X15625Y6231D01*
X15512Y6156D01*
X15888Y5631D02*
X16112Y5631D01*
X16000Y5631D02*
X16000Y6231D01*
X15888Y6156D01*
G54D32*
X10025Y23275D02*
X9800Y23500D01*
X9425Y23500D01*
X9200Y23275D01*
X9200Y22525D01*
X9425Y22300D01*
X9800Y22300D01*
X10025Y22525D01*
X10400Y23500D02*
X10400Y22300D01*
X10700Y22450D02*
X10850Y22300D01*
X11075Y22300D01*
X11225Y22450D01*
X11225Y22825D01*
X11075Y22975D01*
X10850Y22975D01*
X10700Y22825D01*
X10700Y22450D01*
X11225Y22300D02*
X11225Y22975D01*
X12012Y22862D02*
X11900Y22975D01*
X11638Y22975D01*
X11525Y22862D01*
X11525Y22712D01*
X11600Y22638D01*
X11938Y22638D01*
X12012Y22562D01*
X12012Y22412D01*
X11900Y22300D01*
X11638Y22300D01*
X11525Y22412D01*
X12800Y22862D02*
X12688Y22975D01*
X12425Y22975D01*
X12312Y22862D01*
X12312Y22712D01*
X12388Y22638D01*
X12725Y22638D01*
X12800Y22562D01*
X12800Y22412D01*
X12688Y22300D01*
X12425Y22300D01*
X12312Y22412D01*
X13156Y22319D02*
X13156Y23238D01*
X13119Y23275D02*
X13156Y23312D01*
X13194Y23275D01*
X13156Y23238D01*
X13119Y23275D01*
X14019Y22825D02*
X13869Y22975D01*
X13644Y22975D01*
X13494Y22825D01*
X13494Y22450D01*
X13644Y22300D01*
X13869Y22300D01*
X14019Y22450D01*
X15144Y23275D02*
X14919Y23500D01*
X14544Y23500D01*
X14319Y23275D01*
X14319Y22525D01*
X14544Y22300D01*
X14919Y22300D01*
X15144Y22525D01*
X15444Y22450D02*
X15594Y22300D01*
X15819Y22300D01*
X15969Y22450D01*
X15969Y22825D01*
X15819Y22975D01*
X15594Y22975D01*
X15444Y22825D01*
X15444Y22450D01*
X15969Y22300D02*
X15969Y22975D01*
X16269Y22975D02*
X16269Y22300D01*
X16719Y22862D02*
X16606Y22975D01*
X16381Y22975D01*
X16269Y22862D01*
X16269Y22825D01*
X17769Y23275D02*
X17544Y23500D01*
X17244Y23500D01*
X17019Y23275D01*
X17019Y23050D01*
X17169Y22900D01*
X17619Y22900D01*
X17769Y22750D01*
X17769Y22525D01*
X17544Y22300D01*
X17244Y22300D01*
X17019Y22525D01*
X18125Y22319D02*
X18125Y23238D01*
X18088Y23275D02*
X18125Y23312D01*
X18162Y23275D01*
X18125Y23238D01*
X18088Y23275D01*
X18462Y22750D02*
X18462Y22825D01*
X18612Y22975D01*
X18838Y22975D01*
X18988Y22825D01*
X18988Y22450D01*
X18838Y22300D01*
X18612Y22300D01*
X18462Y22450D01*
X18462Y22750D01*
X18988Y22975D02*
X18988Y22150D01*
X18838Y22000D01*
X18612Y22000D01*
X18462Y22150D01*
X19288Y22975D02*
X19288Y22300D01*
X19288Y22862D02*
X19400Y22975D01*
X19700Y22975D01*
X19812Y22862D01*
X19812Y22300D01*
X20112Y22450D02*
X20262Y22300D01*
X20488Y22300D01*
X20638Y22450D01*
X20638Y22825D01*
X20488Y22975D01*
X20262Y22975D01*
X20112Y22825D01*
X20112Y22450D01*
X20638Y22300D02*
X20638Y22975D01*
X21012Y23500D02*
X21012Y22300D01*
X21800Y22862D02*
X21688Y22975D01*
X21425Y22975D01*
X21312Y22862D01*
X21312Y22712D01*
X21388Y22638D01*
X21725Y22638D01*
X21800Y22562D01*
X21800Y22412D01*
X21688Y22300D01*
X21425Y22300D01*
X21312Y22412D01*
X9300Y17300D02*
X9300Y18500D01*
X9675Y17675D01*
X10050Y18500D01*
X10050Y17300D01*
X10462Y17975D02*
X10350Y17862D01*
X10350Y17412D01*
X10462Y17300D01*
X10762Y17300D01*
X10875Y17412D01*
X10875Y17862D01*
X10762Y17975D01*
X10462Y17975D01*
X11175Y17450D02*
X11175Y17825D01*
X11325Y17975D01*
X11550Y17975D01*
X11700Y17825D01*
X11700Y17450D01*
X11550Y17300D01*
X11325Y17300D01*
X11175Y17450D01*
X11700Y17300D02*
X11700Y18500D01*
X12000Y17975D02*
X12000Y17412D01*
X12112Y17300D01*
X12412Y17300D01*
X12525Y17412D01*
X12525Y17975D01*
X12525Y17450D02*
X12525Y17300D01*
X12900Y18500D02*
X12900Y17300D01*
X13725Y17450D02*
X13575Y17300D01*
X13350Y17300D01*
X13200Y17450D01*
X13200Y17825D01*
X13350Y17975D01*
X13575Y17975D01*
X13725Y17825D01*
X13725Y17675D01*
X13200Y17675D01*
X10050Y20775D02*
X9825Y21000D01*
X9525Y21000D01*
X9300Y20775D01*
X9300Y20550D01*
X9450Y20400D01*
X9900Y20400D01*
X10050Y20250D01*
X10050Y20025D01*
X9825Y19800D01*
X9525Y19800D01*
X9300Y20025D01*
X10350Y19800D02*
X10950Y21000D01*
X11250Y19800D02*
X11250Y21000D01*
X12000Y19800D01*
X12000Y21000D01*
G54D16*
X9500Y21500D02*
X9000Y21500D01*
X9000Y19000D01*
X22000Y19000D01*
X22000Y21500D01*
X9500Y21500D01*
X22000Y19000D02*
X22000Y16500D01*
X9000Y16500D01*
X9000Y19000D01*
G54D23*
X6100Y11900D02*
X6500Y11900D01*
X6500Y11750D01*
X6450Y11700D01*
X6350Y11700D01*
X6300Y11750D01*
X6300Y11900D01*
X6275Y11425D02*
X6325Y11475D01*
X6325Y11550D01*
X6275Y11600D01*
X6150Y11600D01*
X6100Y11550D01*
X6100Y11475D01*
X6150Y11425D01*
X6100Y11325D02*
X6500Y11325D01*
X6150Y11325D02*
X6100Y11275D01*
X6100Y11200D01*
X6150Y11150D01*
X6275Y11150D01*
X6325Y11200D01*
X6325Y11275D01*
X6275Y11325D01*
X6125Y11050D02*
X6100Y11025D01*
X6125Y11000D01*
X6150Y11025D01*
X6125Y11050D01*
X6100Y10800D02*
X6500Y10800D01*
X6500Y10625D01*
X6425Y10550D01*
X6350Y10550D01*
X6275Y10625D01*
X6275Y10800D01*
X6275Y10625D02*
X6100Y10525D01*
X6150Y10250D02*
X6100Y10300D01*
X6100Y10375D01*
X6150Y10425D01*
X6275Y10425D01*
X6325Y10375D01*
X6325Y10300D01*
X6275Y10250D01*
X6225Y10250D01*
X6225Y10425D01*
X6325Y10150D02*
X6100Y10075D01*
X6325Y10000D01*
X6125Y9900D02*
X6100Y9875D01*
X6125Y9850D01*
X6150Y9875D01*
X6125Y9900D01*
X6250Y9692D02*
X6250Y9508D01*
X6100Y9750D02*
X6500Y9600D01*
X6100Y9450D01*
M02*
