M48
M72, LZ
T1C0.0300
T2C0.0350
T3C0.0320
T4C0.0330
T5C0.0330
T6C0.0310
T7C0.0135
%
T1
X2.6000Y1.0500
X2.7000Y1.0500
X2.6000Y1.1500
X2.7000Y1.1500
X2.6000Y1.2500
X2.7000Y1.2500
X2.6000Y1.3500
X2.7000Y1.3500
T2
X2.7000Y0.8500
X2.7000Y1.5500
X2.6750Y1.7300
X2.5000Y1.7300
X2.6500Y2.0000
X2.5000Y2.0000
T3
X2.6000Y0.8500
X2.6000Y1.5500
X2.5000Y1.5500
T4
X2.5000Y2.5500
X0.6000Y0.5500
X2.5000Y0.5500
X1.6500Y0.1500
X1.4500Y2.9500
X2.9500Y1.6500
X0.1700Y1.4500
X1.4500Y0.1500
X2.9500Y1.4500
X0.1700Y1.6500
X1.6500Y2.9500
X0.6000Y2.5500
X0.4000Y1.5500
X1.5700Y2.7500
X1.5500Y0.3500
T5
X2.6000Y2.5500
X0.5000Y0.5500
X2.6000Y0.5500
X1.7500Y0.1500
X1.3500Y2.9500
X2.9500Y1.7500
X0.1700Y1.3500
X1.3500Y0.1500
X2.9500Y1.3500
X0.1700Y1.7500
X1.7500Y2.9500
X0.5000Y2.5500
X0.5000Y1.5500
X1.5700Y2.6500
X1.5500Y0.4500
T6
X2.3000Y2.0500
X2.3000Y2.5500
X2.8000Y2.4050
X2.8000Y1.9050
T7
X2.5500Y2.1250
T00
M30
