G04 -- Generated By PCBWeb Designer*
%FSLAX24Y24*%
%MOIN*%
%OFA0B0*%
%SFA1.0B1.0*%
%AMROTRECT*21,1,$1,$2,0,0,$3*%
%AMROTOBLONG*1,1,$7,$1,$2*1,1,$7,$3,$4*21,1,$5,$6,0,0,$8*%
%ADD10C,0.025*%
%ADD11R,0.045X0.045*%
%ADD12C,0.03*%
%ADD13R,0.055X0.055*%
%ADD14C,0.045*%
%ADD15C,0.055*%
%ADD16C,0.01*%
%ADD17C,0.008*%
%ADD18C,0.024*%
%ADD19C,0.035*%
%ADD20R,0.065X0.065*%
%ADD21C,0.032*%
%ADD22C,0.065*%
%ADD23C,0.005*%
%ADD24C,0.021*%
%ADD25R,0.0591X0.0512*%
%ADD26R,0.0691X0.0612*%
%ADD27R,0.0236X0.0315*%
%ADD28R,0.0336X0.0415*%
%ADD29C,0.033*%
%ADD30C,0.033*%
%ADD31C,0.026*%
%ADD32C,0.015*%
%ADD33C,0.031*%
%ADD34C,0.052*%
%ADD35C,0.062*%
%ADD36C,0.0*%
%ADD37C,0.0275*%
G01*
%LNERASE*%
%LPC*%
G54D24*
X27150Y9100D02*
X27150Y9500D01*
X27000Y9500D01*
X26950Y9450D01*
X26950Y9350D01*
X27000Y9300D01*
X27150Y9300D01*
X26850Y9100D02*
X26850Y9500D01*
X26675Y9500D01*
X26600Y9425D01*
X26600Y9350D01*
X26675Y9275D01*
X26850Y9275D01*
X26675Y9275D02*
X26575Y9100D01*
X26225Y9450D02*
X26275Y9500D01*
X26425Y9500D01*
X26475Y9450D01*
X26475Y9150D01*
X26425Y9100D01*
X26275Y9100D01*
X26225Y9150D01*
X26225Y9300D01*
X26400Y9300D01*
X25875Y9500D02*
X26125Y9500D01*
X26125Y9100D01*
X25875Y9100D01*
X26125Y9300D02*
X25975Y9300D01*
X27150Y16100D02*
X27150Y16500D01*
X27000Y16500D01*
X26950Y16450D01*
X26950Y16350D01*
X27000Y16300D01*
X27150Y16300D01*
X26850Y16100D02*
X26850Y16500D01*
X26675Y16500D01*
X26600Y16425D01*
X26600Y16350D01*
X26675Y16275D01*
X26850Y16275D01*
X26675Y16275D02*
X26575Y16100D01*
X26225Y16450D02*
X26275Y16500D01*
X26425Y16500D01*
X26475Y16450D01*
X26475Y16150D01*
X26425Y16100D01*
X26275Y16100D01*
X26225Y16150D01*
X26225Y16300D01*
X26400Y16300D01*
X27912Y17525D02*
X27838Y17450D01*
X27838Y17200D01*
X27912Y17125D01*
X28062Y17125D01*
X28138Y17200D01*
X28138Y17450D01*
X28062Y17525D01*
X27912Y17525D01*
X27912Y17525D01*
X28138Y17525D02*
X28038Y17425D01*
X28238Y17525D02*
X28388Y17525D01*
X28312Y17525D02*
X28312Y17125D01*
X28238Y17175D01*
X25619Y23225D02*
X25694Y23300D01*
X25694Y23550D01*
X25619Y23625D01*
X25469Y23625D01*
X25394Y23550D01*
X25394Y23300D01*
X25469Y23225D01*
X25619Y23225D01*
X25619Y23225D01*
X25394Y23225D02*
X25494Y23325D01*
X25294Y23550D02*
X25219Y23625D01*
X25144Y23625D01*
X25069Y23550D01*
X25069Y23450D01*
X25119Y23400D01*
X25244Y23400D01*
X25294Y23350D01*
X25294Y23225D01*
X25069Y23225D01*
G54D31*
X27050Y17950D02*
X26650Y17950D01*
X26850Y17750D02*
X26850Y18150D01*
G54D24*
X24500Y17269D02*
X24500Y17669D01*
X24325Y17669D01*
X24275Y17619D01*
X24275Y17519D01*
X24325Y17469D01*
X24275Y17419D01*
X24275Y17319D01*
X24325Y17269D01*
X24500Y17269D01*
X24325Y17469D02*
X24500Y17469D01*
X24175Y17269D02*
X24025Y17269D01*
X24100Y17269D02*
X24100Y17669D01*
X24175Y17619D01*
G54D31*
X26600Y19300D02*
X26600Y18900D01*
X26800Y19100D02*
X26400Y19100D01*
G54D18*
X25769Y21012D02*
X25881Y21125D01*
X26069Y21125D01*
X26181Y21012D01*
X26181Y20638D01*
X26069Y20525D01*
X25881Y20525D01*
X25769Y20638D01*
X25619Y20525D02*
X25394Y20525D01*
X25506Y20525D02*
X25506Y21125D01*
X25619Y21050D01*
G54D24*
X26200Y14900D02*
X25900Y14900D01*
X26050Y14900D02*
X26050Y14500D01*
X27100Y14500D02*
X27100Y14900D01*
X26925Y14900D01*
X26850Y14825D01*
X26850Y14750D01*
X26925Y14675D01*
X27100Y14675D01*
X26925Y14675D02*
X26825Y14500D01*
X24850Y14850D02*
X24900Y14900D01*
X25050Y14900D01*
X25100Y14850D01*
X25100Y14550D01*
X25050Y14500D01*
X24900Y14500D01*
X24850Y14550D01*
X24850Y14700D01*
X25025Y14700D01*
X4900Y11900D02*
X4500Y11900D01*
X4500Y11750D01*
X4550Y11700D01*
X4650Y11700D01*
X4700Y11750D01*
X4700Y11900D01*
X4725Y11425D02*
X4675Y11475D01*
X4675Y11550D01*
X4725Y11600D01*
X4850Y11600D01*
X4900Y11550D01*
X4900Y11475D01*
X4850Y11425D01*
X4900Y11325D02*
X4500Y11325D01*
X4850Y11325D02*
X4900Y11275D01*
X4900Y11200D01*
X4850Y11150D01*
X4725Y11150D01*
X4675Y11200D01*
X4675Y11275D01*
X4725Y11325D01*
X4900Y10950D02*
X4500Y10950D01*
X4500Y10775D01*
X4575Y10700D01*
X4650Y10700D01*
X4725Y10775D01*
X4725Y10950D01*
X4725Y10775D02*
X4900Y10675D01*
X4850Y10400D02*
X4900Y10450D01*
X4900Y10525D01*
X4850Y10575D01*
X4725Y10575D01*
X4675Y10525D01*
X4675Y10450D01*
X4725Y10400D01*
X4775Y10400D01*
X4775Y10575D01*
X4675Y10300D02*
X4900Y10225D01*
X4675Y10150D01*
X4875Y10050D02*
X4900Y10025D01*
X4875Y10000D01*
X4850Y10025D01*
X4875Y10050D01*
X4900Y9900D02*
X4500Y9900D01*
X4500Y9725D01*
X4550Y9675D01*
X4650Y9675D01*
X4700Y9725D01*
X4750Y9675D01*
X4850Y9675D01*
X4900Y9725D01*
X4900Y9900D01*
X4700Y9725D02*
X4700Y9900D01*
%LNSTD*%
%LPD*%
G54D16*
X27500Y9000D02*
X27500Y8000D01*
X25500Y8000D01*
X25500Y9000D01*
X27500Y9000D01*
G54D23*
X27150Y9100D02*
X27150Y9500D01*
X27000Y9500D01*
X26950Y9450D01*
X26950Y9350D01*
X27000Y9300D01*
X27150Y9300D01*
X26850Y9100D02*
X26850Y9500D01*
X26675Y9500D01*
X26600Y9425D01*
X26600Y9350D01*
X26675Y9275D01*
X26850Y9275D01*
X26675Y9275D02*
X26575Y9100D01*
X26225Y9450D02*
X26275Y9500D01*
X26425Y9500D01*
X26475Y9450D01*
X26475Y9150D01*
X26425Y9100D01*
X26275Y9100D01*
X26225Y9150D01*
X26225Y9300D01*
X26400Y9300D01*
X25875Y9500D02*
X26125Y9500D01*
X26125Y9100D01*
X25875Y9100D01*
X26125Y9300D02*
X25975Y9300D01*
G54D16*
X27500Y8250D02*
X27250Y8000D01*
X27500Y16000D02*
X27500Y15000D01*
X24500Y15000D01*
X24500Y16000D01*
X27500Y16000D01*
G54D23*
X27150Y16100D02*
X27150Y16500D01*
X27000Y16500D01*
X26950Y16450D01*
X26950Y16350D01*
X27000Y16300D01*
X27150Y16300D01*
X26850Y16100D02*
X26850Y16500D01*
X26675Y16500D01*
X26600Y16425D01*
X26600Y16350D01*
X26675Y16275D01*
X26850Y16275D01*
X26675Y16275D02*
X26575Y16100D01*
X26225Y16450D02*
X26275Y16500D01*
X26425Y16500D01*
X26475Y16450D01*
X26475Y16150D01*
X26425Y16100D01*
X26275Y16100D01*
X26225Y16150D01*
X26225Y16300D01*
X26400Y16300D01*
G54D16*
X26500Y16000D02*
X26500Y15000D01*
G54D23*
X28250Y18750D02*
X28250Y18750D01*
X27550Y18750D01*
X27550Y17650D01*
X28450Y17650D01*
X28450Y18750D01*
X28250Y18750D01*
X27912Y17525D02*
X27838Y17450D01*
X27838Y17200D01*
X27912Y17125D01*
X28062Y17125D01*
X28138Y17200D01*
X28138Y17450D01*
X28062Y17525D01*
X27912Y17525D01*
X27912Y17525D01*
X28138Y17525D02*
X28038Y17425D01*
X28238Y17525D02*
X28388Y17525D01*
X28312Y17525D02*
X28312Y17125D01*
X28238Y17175D01*
X25500Y23000D02*
X25500Y23000D01*
X24800Y23000D01*
X24800Y21900D01*
X25700Y21900D01*
X25700Y23000D01*
X25500Y23000D01*
X25619Y23225D02*
X25694Y23300D01*
X25694Y23550D01*
X25619Y23625D01*
X25469Y23625D01*
X25394Y23550D01*
X25394Y23300D01*
X25469Y23225D01*
X25619Y23225D01*
X25619Y23225D01*
X25394Y23225D02*
X25494Y23325D01*
X25294Y23550D02*
X25219Y23625D01*
X25144Y23625D01*
X25069Y23550D01*
X25069Y23450D01*
X25119Y23400D01*
X25244Y23400D01*
X25294Y23350D01*
X25294Y23225D01*
X25069Y23225D01*
G54D16*
X27050Y17950D02*
X26650Y17950D01*
X26850Y17750D02*
X26850Y18150D01*
X26250Y16800D02*
X26250Y17800D01*
X26000Y17050D02*
X26000Y17550D01*
X25750Y16800D02*
X25750Y17800D01*
X25500Y17050D02*
X25500Y17550D01*
G54D23*
X24500Y17269D02*
X24500Y17669D01*
X24325Y17669D01*
X24275Y17619D01*
X24275Y17519D01*
X24325Y17469D01*
X24275Y17419D01*
X24275Y17319D01*
X24325Y17269D01*
X24500Y17269D01*
X24325Y17469D02*
X24500Y17469D01*
X24175Y17269D02*
X24025Y17269D01*
X24100Y17269D02*
X24100Y17669D01*
X24175Y17619D01*
G54D16*
X9000Y2300D02*
X9000Y28800D01*
X22000Y28800D01*
X22000Y2300D01*
X9000Y2300D01*
X26000Y18000D02*
X26083Y18012D01*
X26166Y18028D01*
X26248Y18047D01*
X26330Y18070D01*
X26410Y18096D01*
X26489Y18125D01*
X26566Y18158D01*
X26643Y18193D01*
X26717Y18232D01*
X26791Y18274D01*
X26862Y18320D01*
X26931Y18368D01*
X26998Y18418D01*
X27063Y18472D01*
X27126Y18528D01*
X27186Y18587D01*
X27244Y18649D01*
X27299Y18713D01*
X27351Y18779D01*
X27401Y18847D01*
X27448Y18917D01*
X27491Y18989D01*
X27532Y19063D01*
X27570Y19138D01*
X27604Y19215D01*
X27635Y19294D01*
X27663Y19373D01*
X27687Y19454D01*
X27708Y19535D01*
X27726Y19618D01*
X27740Y19701D01*
X27751Y19785D01*
X27758Y19869D01*
X27761Y19953D01*
X27761Y20037D01*
X27758Y20121D01*
X27751Y20205D01*
X27740Y20289D01*
X27726Y20372D01*
X27709Y20455D01*
X27688Y20536D01*
X27664Y20617D01*
X27636Y20697D01*
X27605Y20775D01*
X27571Y20852D01*
X27533Y20927D01*
X27493Y21001D01*
X27449Y21073D01*
X27402Y21144D01*
X27353Y21212D01*
X27300Y21278D01*
X27245Y21342D01*
X27188Y21403D01*
X27127Y21462D01*
X27065Y21519D01*
X27000Y21572D01*
X26933Y21623D01*
X26864Y21671D01*
X26792Y21717D01*
X26719Y21759D01*
X26645Y21798D01*
X26569Y21834D01*
X26491Y21866D01*
X26412Y21896D01*
X26332Y21922D01*
X26250Y21945D01*
X26168Y21964D01*
X26086Y21980D01*
X26002Y21992D01*
X25918Y22001D01*
X25834Y22006D01*
X25750Y22008D01*
X25666Y22006D01*
X25582Y22001D01*
X25498Y21992D01*
X25414Y21980D01*
X25332Y21964D01*
X25250Y21945D01*
X25168Y21922D01*
X25088Y21896D01*
X25009Y21866D01*
X24931Y21834D01*
X24855Y21798D01*
X24781Y21759D01*
X24708Y21717D01*
X24636Y21671D01*
X24567Y21623D01*
X24500Y21572D01*
X24435Y21519D01*
X24373Y21462D01*
X24312Y21403D01*
X24255Y21342D01*
X24200Y21278D01*
X24147Y21212D01*
X24098Y21144D01*
X24051Y21073D01*
X24007Y21001D01*
X23967Y20927D01*
X23929Y20852D01*
X23895Y20775D01*
X23864Y20697D01*
X23836Y20617D01*
X23812Y20536D01*
X23791Y20455D01*
X23774Y20372D01*
X23760Y20289D01*
X23749Y20205D01*
X23742Y20121D01*
X23739Y20037D01*
X23739Y19953D01*
X23742Y19869D01*
X23749Y19785D01*
X23760Y19701D01*
X23774Y19618D01*
X23792Y19535D01*
X23813Y19454D01*
X23837Y19373D01*
X23865Y19294D01*
X23896Y19215D01*
X23930Y19138D01*
X23968Y19063D01*
X24009Y18989D01*
X24052Y18917D01*
X24099Y18847D01*
X24149Y18779D01*
X24201Y18713D01*
X24256Y18649D01*
X24314Y18587D01*
X24374Y18528D01*
X24437Y18472D01*
X24502Y18418D01*
X24569Y18368D01*
X24638Y18320D01*
X24709Y18274D01*
X24783Y18232D01*
X24857Y18193D01*
X24934Y18158D01*
X25011Y18125D01*
X25090Y18096D01*
X25170Y18070D01*
X25252Y18047D01*
X25334Y18028D01*
X25417Y18012D01*
X25500Y18000D01*
X25500Y18000D01*
X26600Y19300D02*
X26600Y18900D01*
X26800Y19100D02*
X26400Y19100D01*
G54D17*
X25769Y21012D02*
X25881Y21125D01*
X26069Y21125D01*
X26181Y21012D01*
X26181Y20638D01*
X26069Y20525D01*
X25881Y20525D01*
X25769Y20638D01*
X25619Y20525D02*
X25394Y20525D01*
X25506Y20525D02*
X25506Y21125D01*
X25619Y21050D01*
G54D23*
X26200Y14900D02*
X25900Y14900D01*
X26050Y14900D02*
X26050Y14500D01*
X27100Y14500D02*
X27100Y14900D01*
X26925Y14900D01*
X26850Y14825D01*
X26850Y14750D01*
X26925Y14675D01*
X27100Y14675D01*
X26925Y14675D02*
X26825Y14500D01*
X24850Y14850D02*
X24900Y14900D01*
X25050Y14900D01*
X25100Y14850D01*
X25100Y14550D01*
X25050Y14500D01*
X24900Y14500D01*
X24850Y14550D01*
X24850Y14700D01*
X25025Y14700D01*
X4900Y11900D02*
X4500Y11900D01*
X4500Y11750D01*
X4550Y11700D01*
X4650Y11700D01*
X4700Y11750D01*
X4700Y11900D01*
X4725Y11425D02*
X4675Y11475D01*
X4675Y11550D01*
X4725Y11600D01*
X4850Y11600D01*
X4900Y11550D01*
X4900Y11475D01*
X4850Y11425D01*
X4900Y11325D02*
X4500Y11325D01*
X4850Y11325D02*
X4900Y11275D01*
X4900Y11200D01*
X4850Y11150D01*
X4725Y11150D01*
X4675Y11200D01*
X4675Y11275D01*
X4725Y11325D01*
X4900Y10950D02*
X4500Y10950D01*
X4500Y10775D01*
X4575Y10700D01*
X4650Y10700D01*
X4725Y10775D01*
X4725Y10950D01*
X4725Y10775D02*
X4900Y10675D01*
X4850Y10400D02*
X4900Y10450D01*
X4900Y10525D01*
X4850Y10575D01*
X4725Y10575D01*
X4675Y10525D01*
X4675Y10450D01*
X4725Y10400D01*
X4775Y10400D01*
X4775Y10575D01*
X4675Y10300D02*
X4900Y10225D01*
X4675Y10150D01*
X4875Y10050D02*
X4900Y10025D01*
X4875Y10000D01*
X4850Y10025D01*
X4875Y10050D01*
X4900Y9900D02*
X4500Y9900D01*
X4500Y9725D01*
X4550Y9675D01*
X4650Y9675D01*
X4700Y9725D01*
X4750Y9675D01*
X4850Y9675D01*
X4900Y9725D01*
X4900Y9900D01*
X4700Y9725D02*
X4700Y9900D01*
M02*
