G04 -- Generated By PCBWeb Designer*
%FSLAX24Y24*%
%MOIN*%
%OFA0B0*%
%SFA1.0B1.0*%
%AMROTRECT*21,1,$1,$2,0,0,$3*%
%AMROTOBLONG*1,1,$7,$1,$2*1,1,$7,$3,$4*21,1,$5,$6,0,0,$8*%
%ADD10C,0.025*%
%ADD11C,0.15*%
%ADD12C,0.1*%
%ADD13C,0.16*%
%ADD14C,0.005*%
%ADD15R,0.065X0.0394*%
%ADD16R,0.075X0.0494*%
%ADD17C,0.021*%
%ADD18R,0.0394X0.0866*%
%ADD19R,0.0494X0.0966*%
%ADD20C,0.002*%
%ADD21C,0.018*%
%ADD22C,0.008*%
%ADD23C,0.024*%
%ADD24R,0.055X0.055*%
%ADD25C,0.035*%
%ADD26R,0.065X0.065*%
%ADD27C,0.055*%
%ADD28C,0.032*%
%ADD29C,0.065*%
%ADD30C,0.01*%
%ADD31R,0.0591X0.0512*%
%ADD32R,0.0691X0.0612*%
%ADD33C,0.07*%
%ADD34C,0.045*%
%ADD35C,0.08*%
%ADD36C,0.033*%
%ADD37C,0.033*%
%ADD38C,0.026*%
%ADD39C,0.0394*%
%ADD40C,0.0197*%
%ADD41C,0.0494*%
%ADD42C,0.0059*%
%ADD43C,0.015*%
%ADD44C,0.0275*%
%ADD45C,0.0*%
G01*
%LNERASE*%
%LPC*%
G54D17*
X13300Y5600D02*
X13300Y5350D01*
X13700Y5350D01*
X13700Y5600D01*
X13500Y5350D02*
X13500Y5500D01*
X13375Y5950D02*
X13300Y5875D01*
X13300Y5775D01*
X13375Y5700D01*
X13450Y5700D01*
X13500Y5750D01*
X13500Y5900D01*
X13550Y5950D01*
X13625Y5950D01*
X13700Y5875D01*
X13700Y5775D01*
X13625Y5700D01*
X13700Y6050D02*
X13300Y6050D01*
X13300Y6200D01*
X13350Y6250D01*
X13450Y6250D01*
X13500Y6200D01*
X13500Y6050D01*
X13650Y6350D02*
X13700Y6400D01*
X13700Y6525D01*
X13650Y6575D01*
X13550Y6575D01*
X13500Y6525D01*
X13500Y6400D01*
X13550Y6350D01*
X13650Y6350D01*
X13650Y6350D01*
X13500Y6525D02*
X13450Y6575D01*
X13350Y6575D01*
X13300Y6525D01*
X13300Y6400D01*
X13350Y6350D01*
X13450Y6350D01*
X13500Y6400D01*
X13375Y6675D02*
X13300Y6750D01*
X13300Y6825D01*
X13375Y6900D01*
X13475Y6900D01*
X13525Y6850D01*
X13525Y6725D01*
X13575Y6675D01*
X13700Y6675D01*
X13700Y6900D01*
X13300Y7075D02*
X13375Y7000D01*
X13650Y7000D01*
X13700Y7050D01*
X13700Y7175D01*
X13650Y7225D01*
X13550Y7225D01*
X13500Y7175D01*
X13500Y7050D01*
X13550Y7000D01*
X13300Y7400D02*
X13375Y7325D01*
X13650Y7325D01*
X13700Y7375D01*
X13700Y7500D01*
X13650Y7550D01*
X13550Y7550D01*
X13500Y7500D01*
X13500Y7375D01*
X13550Y7325D01*
X13525Y7650D02*
X13525Y7800D01*
X13700Y7900D02*
X13700Y8050D01*
X13700Y7975D02*
X13300Y7975D01*
X13350Y7900D01*
X13375Y8150D02*
X13300Y8225D01*
X13300Y8300D01*
X13375Y8375D01*
X13475Y8375D01*
X13525Y8325D01*
X13525Y8200D01*
X13575Y8150D01*
X13700Y8150D01*
X13700Y8375D01*
X13300Y8725D02*
X13300Y8475D01*
X13700Y8475D01*
X13700Y8725D01*
X13500Y8475D02*
X13500Y8625D01*
X7150Y5008D02*
X7150Y5192D01*
X7300Y4950D02*
X6900Y5100D01*
X7300Y5250D01*
X7300Y5350D02*
X6900Y5350D01*
X7300Y5600D01*
X6900Y5600D01*
X6900Y5700D02*
X6900Y6000D01*
X6900Y5850D02*
X7300Y5850D01*
X6900Y6350D02*
X6900Y6100D01*
X7300Y6100D01*
X7300Y6350D01*
X7100Y6100D02*
X7100Y6250D01*
X7300Y6450D02*
X6900Y6450D01*
X7300Y6700D01*
X6900Y6700D01*
X7300Y6800D02*
X6900Y6800D01*
X7300Y7050D01*
X6900Y7050D01*
X7150Y7208D02*
X7150Y7392D01*
X7300Y7150D02*
X6900Y7300D01*
X7300Y7450D01*
X6900Y7650D02*
X7300Y7650D01*
X6900Y7875D02*
X7300Y7875D01*
X7100Y7650D02*
X7100Y7875D01*
X6900Y8225D02*
X6900Y7975D01*
X7300Y7975D01*
X7300Y8225D01*
X7100Y7975D02*
X7100Y8125D01*
X7300Y8325D02*
X6900Y8325D01*
X6900Y8500D01*
X6975Y8575D01*
X7050Y8575D01*
X7125Y8500D01*
X7125Y8325D01*
X7125Y8500D02*
X7300Y8600D01*
X6900Y8950D02*
X6900Y8700D01*
X7300Y8700D01*
X7300Y8950D01*
X7100Y8700D02*
X7100Y8850D01*
G54D21*
X9450Y2700D02*
X9250Y2700D01*
X9250Y2788D01*
X9288Y2825D01*
X9325Y2825D01*
X9362Y2788D01*
X9362Y2700D01*
X9362Y2788D02*
X9450Y2838D01*
X9288Y3012D02*
X9250Y2975D01*
X9250Y2925D01*
X9288Y2888D01*
X9325Y2888D01*
X9350Y2912D01*
X9350Y2988D01*
X9375Y3012D01*
X9412Y3012D01*
X9450Y2975D01*
X9450Y2925D01*
X9412Y2888D01*
X9250Y3062D02*
X9250Y3212D01*
X9250Y3138D02*
X9450Y3138D01*
X10175Y2729D02*
X10175Y2821D01*
X10250Y2700D02*
X10050Y2775D01*
X10250Y2850D01*
X10250Y2900D02*
X10050Y2900D01*
X10050Y2988D01*
X10088Y3025D01*
X10212Y3025D01*
X10250Y2988D01*
X10250Y2900D01*
X10250Y2900D01*
X10088Y3212D02*
X10050Y3175D01*
X10050Y3112D01*
X10088Y3075D01*
X10212Y3075D01*
X10250Y3112D01*
X10250Y3175D01*
X10212Y3212D01*
X10850Y2825D02*
X10850Y2700D01*
X11050Y2700D01*
X11050Y2825D01*
X10950Y2700D02*
X10950Y2775D01*
X11050Y2875D02*
X10850Y2875D01*
X11050Y3000D01*
X10850Y3000D01*
X11675Y2825D02*
X11650Y2800D01*
X11650Y2725D01*
X11675Y2700D01*
X11825Y2700D01*
X11850Y2725D01*
X11850Y2800D01*
X11825Y2825D01*
X11750Y2825D01*
X11750Y2738D01*
X11850Y2875D02*
X11850Y2950D01*
X11850Y2912D02*
X11650Y2912D01*
X11675Y2875D01*
X11650Y3038D02*
X11688Y3000D01*
X11825Y3000D01*
X11850Y3025D01*
X11850Y3088D01*
X11825Y3112D01*
X11775Y3112D01*
X11750Y3088D01*
X11750Y3025D01*
X11775Y3000D01*
X12475Y2825D02*
X12450Y2800D01*
X12450Y2725D01*
X12475Y2700D01*
X12625Y2700D01*
X12650Y2725D01*
X12650Y2800D01*
X12625Y2825D01*
X12550Y2825D01*
X12550Y2738D01*
X12650Y2875D02*
X12650Y2950D01*
X12650Y2912D02*
X12450Y2912D01*
X12475Y2875D01*
X12450Y3000D02*
X12562Y3000D01*
X12562Y3100D01*
X12475Y3075D02*
X12650Y3075D01*
X13225Y2825D02*
X13200Y2800D01*
X13200Y2725D01*
X13225Y2700D01*
X13375Y2700D01*
X13400Y2725D01*
X13400Y2800D01*
X13375Y2825D01*
X13300Y2825D01*
X13300Y2738D01*
X13400Y2875D02*
X13400Y2950D01*
X13400Y2912D02*
X13200Y2912D01*
X13225Y2875D01*
X13238Y3000D02*
X13200Y3038D01*
X13200Y3075D01*
X13238Y3112D01*
X13288Y3112D01*
X13312Y3088D01*
X13312Y3025D01*
X13338Y3000D01*
X13400Y3000D01*
X13400Y3112D01*
X14025Y2825D02*
X14000Y2800D01*
X14000Y2725D01*
X14025Y2700D01*
X14175Y2700D01*
X14200Y2725D01*
X14200Y2800D01*
X14175Y2825D01*
X14100Y2825D01*
X14100Y2738D01*
X14200Y2875D02*
X14200Y2950D01*
X14200Y2912D02*
X14000Y2912D01*
X14025Y2875D01*
X14025Y3000D02*
X14000Y3025D01*
X14000Y3088D01*
X14025Y3112D01*
X14075Y3112D01*
X14100Y3088D01*
X14100Y3050D01*
X14100Y3088D02*
X14125Y3112D01*
X14175Y3112D01*
X14200Y3088D01*
X14200Y3025D01*
X14175Y3000D01*
X14800Y2700D02*
X15000Y2775D01*
X14800Y2850D01*
X14838Y3038D02*
X14800Y3000D01*
X14800Y2938D01*
X14838Y2900D01*
X14962Y2900D01*
X15000Y2938D01*
X15000Y3000D01*
X14962Y3038D01*
X14838Y3225D02*
X14800Y3188D01*
X14800Y3125D01*
X14838Y3088D01*
X14962Y3088D01*
X15000Y3125D01*
X15000Y3188D01*
X14962Y3225D01*
X9300Y10650D02*
X9300Y10800D01*
X9300Y10725D02*
X9500Y10725D01*
X9500Y10850D02*
X9388Y10925D01*
X9388Y10850D02*
X9500Y10925D01*
X10300Y10700D02*
X10100Y10700D01*
X10100Y10788D01*
X10138Y10825D01*
X10175Y10825D01*
X10212Y10788D01*
X10212Y10700D01*
X10212Y10788D02*
X10300Y10838D01*
X10300Y10888D02*
X10188Y10962D01*
X10188Y10888D02*
X10300Y10962D01*
X10925Y10825D02*
X10900Y10800D01*
X10900Y10725D01*
X10925Y10700D01*
X11075Y10700D01*
X11100Y10725D01*
X11100Y10800D01*
X11075Y10825D01*
X11000Y10825D01*
X11000Y10738D01*
X10900Y10975D02*
X10900Y10875D01*
X10988Y10875D01*
X10988Y10950D01*
X11012Y10975D01*
X11075Y10975D01*
X11100Y10950D01*
X11100Y10875D01*
X11725Y10825D02*
X11700Y10800D01*
X11700Y10725D01*
X11725Y10700D01*
X11875Y10700D01*
X11900Y10725D01*
X11900Y10800D01*
X11875Y10825D01*
X11800Y10825D01*
X11800Y10738D01*
X11700Y10875D02*
X11812Y10875D01*
X11812Y10975D01*
X11725Y10950D02*
X11900Y10950D01*
X12475Y10825D02*
X12450Y10800D01*
X12450Y10725D01*
X12475Y10700D01*
X12625Y10700D01*
X12650Y10725D01*
X12650Y10800D01*
X12625Y10825D01*
X12550Y10825D01*
X12550Y10738D01*
X12600Y10875D02*
X12625Y10888D01*
X12638Y10900D01*
X12650Y10925D01*
X12650Y10975D01*
X12638Y11000D01*
X12625Y11012D01*
X12600Y11025D01*
X12500Y11025D01*
X12475Y11012D01*
X12462Y11000D01*
X12450Y10975D01*
X12450Y10925D01*
X12462Y10900D01*
X12475Y10888D01*
X12500Y10875D01*
X12600Y10875D01*
X12600Y10875D01*
X12650Y10875D02*
X12450Y11025D01*
X13275Y10825D02*
X13250Y10800D01*
X13250Y10725D01*
X13275Y10700D01*
X13425Y10700D01*
X13450Y10725D01*
X13450Y10800D01*
X13425Y10825D01*
X13350Y10825D01*
X13350Y10738D01*
X13288Y10875D02*
X13250Y10912D01*
X13250Y10950D01*
X13288Y10988D01*
X13338Y10988D01*
X13362Y10962D01*
X13362Y10900D01*
X13388Y10875D01*
X13450Y10875D01*
X13450Y10988D01*
X14075Y10825D02*
X14050Y10800D01*
X14050Y10725D01*
X14075Y10700D01*
X14225Y10700D01*
X14250Y10725D01*
X14250Y10800D01*
X14225Y10825D01*
X14150Y10825D01*
X14150Y10738D01*
X14250Y10875D02*
X14250Y10950D01*
X14250Y10912D02*
X14050Y10912D01*
X14075Y10875D01*
X14050Y11100D02*
X14050Y11000D01*
X14138Y11000D01*
X14138Y11075D01*
X14162Y11100D01*
X14225Y11100D01*
X14250Y11075D01*
X14250Y11000D01*
X14825Y10825D02*
X14800Y10800D01*
X14800Y10725D01*
X14825Y10700D01*
X14975Y10700D01*
X15000Y10725D01*
X15000Y10800D01*
X14975Y10825D01*
X14900Y10825D01*
X14900Y10738D01*
X15000Y10875D02*
X14800Y10875D01*
X15000Y11000D01*
X14800Y11000D01*
X15000Y11050D02*
X14800Y11050D01*
X14800Y11138D01*
X14838Y11175D01*
X14962Y11175D01*
X15000Y11138D01*
X15000Y11050D01*
X15000Y11050D01*
X16138Y4962D02*
X16100Y5000D01*
X16038Y5000D01*
X16000Y4962D01*
X16000Y4838D01*
X16038Y4800D01*
X16100Y4800D01*
X16138Y4838D01*
X16312Y4962D02*
X16275Y5000D01*
X16225Y5000D01*
X16188Y4962D01*
X16188Y4925D01*
X16212Y4900D01*
X16288Y4900D01*
X16312Y4875D01*
X16312Y4838D01*
X16275Y4800D01*
X16225Y4800D01*
X16188Y4838D01*
X16362Y4850D02*
X16375Y4825D01*
X16388Y4812D01*
X16412Y4800D01*
X16462Y4800D01*
X16488Y4812D01*
X16500Y4825D01*
X16512Y4850D01*
X16512Y4950D01*
X16500Y4975D01*
X16488Y4988D01*
X16462Y5000D01*
X16412Y5000D01*
X16388Y4988D01*
X16375Y4975D01*
X16362Y4950D01*
X16362Y4850D01*
X16362Y4850D01*
X16362Y4800D02*
X16512Y5000D01*
X16000Y5600D02*
X16000Y5800D01*
X16062Y5662D01*
X16125Y5800D01*
X16125Y5600D01*
X16175Y5600D02*
X16250Y5600D01*
X16175Y5800D02*
X16250Y5800D01*
X16212Y5800D02*
X16212Y5600D01*
X16425Y5762D02*
X16388Y5800D01*
X16338Y5800D01*
X16300Y5762D01*
X16300Y5725D01*
X16325Y5700D01*
X16400Y5700D01*
X16425Y5675D01*
X16425Y5638D01*
X16388Y5600D01*
X16338Y5600D01*
X16300Y5638D01*
X16475Y5650D02*
X16475Y5775D01*
X16500Y5800D01*
X16588Y5800D01*
X16612Y5775D01*
X16612Y5625D01*
X16588Y5600D01*
X16500Y5600D01*
X16475Y5625D01*
X16475Y5650D01*
X16125Y6525D02*
X16100Y6550D01*
X16025Y6550D01*
X16000Y6525D01*
X16000Y6375D01*
X16025Y6350D01*
X16100Y6350D01*
X16125Y6375D01*
X16125Y6450D01*
X16038Y6450D01*
X16175Y6525D02*
X16200Y6550D01*
X16262Y6550D01*
X16288Y6525D01*
X16288Y6475D01*
X16262Y6450D01*
X16200Y6450D01*
X16175Y6475D01*
X16175Y6525D01*
X16175Y6525D01*
X16288Y6475D02*
X16288Y6350D01*
X16125Y7375D02*
X16100Y7400D01*
X16025Y7400D01*
X16000Y7375D01*
X16000Y7225D01*
X16025Y7200D01*
X16100Y7200D01*
X16125Y7225D01*
X16125Y7300D01*
X16038Y7300D01*
X16175Y7200D02*
X16250Y7200D01*
X16212Y7200D02*
X16212Y7400D01*
X16175Y7375D01*
X16300Y7250D02*
X16312Y7225D01*
X16325Y7212D01*
X16350Y7200D01*
X16400Y7200D01*
X16425Y7212D01*
X16438Y7225D01*
X16450Y7250D01*
X16450Y7350D01*
X16438Y7375D01*
X16425Y7388D01*
X16400Y7400D01*
X16350Y7400D01*
X16325Y7388D01*
X16312Y7375D01*
X16300Y7350D01*
X16300Y7250D01*
X16300Y7250D01*
X16300Y7200D02*
X16450Y7400D01*
X16000Y7950D02*
X16000Y8150D01*
X16062Y8012D01*
X16125Y8150D01*
X16125Y7950D01*
X16175Y8000D02*
X16175Y8125D01*
X16200Y8150D01*
X16288Y8150D01*
X16312Y8125D01*
X16312Y7975D01*
X16288Y7950D01*
X16200Y7950D01*
X16175Y7975D01*
X16175Y8000D01*
X16488Y8112D02*
X16450Y8150D01*
X16400Y8150D01*
X16362Y8112D01*
X16362Y8075D01*
X16388Y8050D01*
X16462Y8050D01*
X16488Y8025D01*
X16488Y7988D01*
X16450Y7950D01*
X16400Y7950D01*
X16362Y7988D01*
X16538Y7950D02*
X16612Y7950D01*
X16538Y8150D02*
X16612Y8150D01*
X16575Y8150D02*
X16575Y7950D01*
X16125Y8912D02*
X16088Y8950D01*
X16038Y8950D01*
X16000Y8912D01*
X16000Y8875D01*
X16025Y8850D01*
X16100Y8850D01*
X16125Y8825D01*
X16125Y8788D01*
X16088Y8750D01*
X16038Y8750D01*
X16000Y8788D01*
X16312Y8912D02*
X16275Y8950D01*
X16212Y8950D01*
X16175Y8912D01*
X16175Y8788D01*
X16212Y8750D01*
X16275Y8750D01*
X16312Y8788D01*
X16362Y8950D02*
X16362Y8750D01*
X16475Y8750D01*
X16525Y8750D02*
X16525Y8950D01*
X16612Y8950D02*
X16525Y8838D01*
X16625Y8750D01*
G54D23*
X6175Y2594D02*
X6700Y2594D01*
X6775Y2669D01*
X6775Y2931D01*
X6700Y3006D01*
X6175Y3006D01*
X6775Y3156D02*
X6775Y3381D01*
X6775Y3269D02*
X6175Y3269D01*
X6250Y3156D01*
G54D17*
X15400Y12850D02*
X15000Y12850D01*
X15000Y13000D01*
X15050Y13050D01*
X15150Y13050D01*
X15200Y13000D01*
X15200Y12850D01*
X15400Y13150D02*
X15000Y13150D01*
X15000Y13325D01*
X15075Y13400D01*
X15150Y13400D01*
X15225Y13325D01*
X15225Y13150D01*
X15225Y13325D02*
X15400Y13425D01*
X15050Y13775D02*
X15000Y13725D01*
X15000Y13575D01*
X15050Y13525D01*
X15350Y13525D01*
X15400Y13575D01*
X15400Y13725D01*
X15350Y13775D01*
X15200Y13775D01*
X15200Y13600D01*
X15000Y14125D02*
X15000Y13875D01*
X15400Y13875D01*
X15400Y14125D01*
X15200Y13875D02*
X15200Y14025D01*
X13705Y13131D02*
X13305Y13131D01*
X13305Y13306D01*
X13380Y13381D01*
X13455Y13381D01*
X13530Y13306D01*
X13530Y13131D01*
X13530Y13306D02*
X13705Y13406D01*
X13705Y13506D02*
X13705Y13656D01*
X13705Y13581D02*
X13305Y13581D01*
X13355Y13506D01*
X18150Y13100D02*
X17750Y13100D01*
X17750Y13250D01*
X17800Y13300D01*
X17900Y13300D01*
X17950Y13250D01*
X17950Y13100D01*
X18150Y13400D02*
X17750Y13400D01*
X17750Y13575D01*
X17825Y13650D01*
X17900Y13650D01*
X17975Y13575D01*
X17975Y13400D01*
X17975Y13575D02*
X18150Y13675D01*
X17800Y14025D02*
X17750Y13975D01*
X17750Y13825D01*
X17800Y13775D01*
X18100Y13775D01*
X18150Y13825D01*
X18150Y13975D01*
X18100Y14025D01*
X17950Y14025D01*
X17950Y13850D01*
X11955Y17325D02*
X11555Y17325D01*
X11555Y17500D01*
X11630Y17575D01*
X11705Y17575D01*
X11780Y17500D01*
X11780Y17325D01*
X11780Y17500D02*
X11955Y17600D01*
X11630Y17700D02*
X11555Y17775D01*
X11555Y17850D01*
X11630Y17925D01*
X11730Y17925D01*
X11780Y17875D01*
X11780Y17750D01*
X11830Y17700D01*
X11955Y17700D01*
X11955Y17925D01*
X16955Y17325D02*
X16555Y17325D01*
X16555Y17500D01*
X16630Y17575D01*
X16705Y17575D01*
X16780Y17500D01*
X16780Y17325D01*
X16780Y17500D02*
X16955Y17600D01*
X16605Y17700D02*
X16555Y17750D01*
X16555Y17875D01*
X16605Y17925D01*
X16705Y17925D01*
X16755Y17875D01*
X16755Y17800D01*
X16755Y17875D02*
X16805Y17925D01*
X16905Y17925D01*
X16955Y17875D01*
X16955Y17750D01*
X16905Y17700D01*
G54D38*
X11950Y23150D02*
X12350Y23150D01*
X12150Y22950D02*
X12150Y23350D01*
G54D23*
X13450Y20869D02*
X12850Y20869D01*
X12850Y21131D01*
X12925Y21206D01*
X13075Y21206D01*
X13150Y21131D01*
X13225Y21206D01*
X13375Y21206D01*
X13450Y21131D01*
X13450Y20869D01*
X13150Y21131D02*
X13150Y20869D01*
X13450Y21356D02*
X13450Y21581D01*
X13450Y21469D02*
X12850Y21469D01*
X12925Y21356D01*
G54D38*
X8350Y17200D02*
X8350Y17600D01*
X8550Y17400D02*
X8150Y17400D01*
G54D17*
X6406Y19000D02*
X6331Y18925D01*
X6331Y18800D01*
X6406Y18725D01*
X6656Y18725D01*
X6731Y18800D01*
X6731Y18925D01*
X6656Y19000D01*
X6731Y19100D02*
X6731Y19250D01*
X6731Y19175D02*
X6331Y19175D01*
X6381Y19100D01*
X16400Y12850D02*
X16000Y12850D01*
X16000Y13025D01*
X16075Y13100D01*
X16150Y13100D01*
X16225Y13025D01*
X16225Y12850D01*
X16225Y13025D02*
X16400Y13125D01*
X16000Y13850D02*
X16000Y14150D01*
X16000Y14000D02*
X16400Y14000D01*
X16050Y15100D02*
X16000Y15050D01*
X16000Y14900D01*
X16050Y14850D01*
X16350Y14850D01*
X16400Y14900D01*
X16400Y15050D01*
X16350Y15100D01*
X16200Y15100D01*
X16200Y14925D01*
G54D38*
X7200Y450D02*
X7200Y1250D01*
X7500Y1250D01*
X7600Y1150D01*
X7600Y950D01*
X7500Y850D01*
X7200Y850D01*
X8150Y800D02*
X8050Y900D01*
X7900Y900D01*
X7800Y800D01*
X7800Y550D01*
X7900Y450D01*
X8050Y450D01*
X8150Y550D01*
X8350Y450D02*
X8350Y1250D01*
X8350Y550D02*
X8450Y450D01*
X8600Y450D01*
X8700Y550D01*
X8700Y800D01*
X8600Y900D01*
X8450Y900D01*
X8350Y800D01*
X8900Y500D02*
X8950Y450D01*
X9000Y500D01*
X8950Y550D01*
X8900Y500D01*
X9200Y450D02*
X9200Y1250D01*
X9550Y1250D01*
X9700Y1100D01*
X9700Y950D01*
X9550Y800D01*
X9200Y800D01*
X9550Y800D02*
X9750Y450D01*
X10300Y550D02*
X10200Y450D01*
X10050Y450D01*
X9950Y550D01*
X9950Y800D01*
X10050Y900D01*
X10200Y900D01*
X10300Y800D01*
X10300Y700D01*
X9950Y700D01*
X10500Y900D02*
X10650Y450D01*
X10800Y900D01*
X11000Y500D02*
X11050Y450D01*
X11100Y500D01*
X11050Y550D01*
X11000Y500D01*
X11300Y450D02*
X11300Y1250D01*
X11650Y1250D01*
X11750Y1150D01*
X11750Y950D01*
X11650Y850D01*
X11750Y750D01*
X11750Y550D01*
X11650Y450D01*
X11300Y450D01*
X11650Y850D02*
X11300Y850D01*
%LNSTD*%
%LPD*%
G54D14*
X15500Y3750D02*
X15500Y10050D01*
X6050Y10050D01*
X6050Y3750D01*
X15500Y3750D01*
X15500Y3750D01*
X13300Y5600D02*
X13300Y5350D01*
X13700Y5350D01*
X13700Y5600D01*
X13500Y5350D02*
X13500Y5500D01*
X13375Y5950D02*
X13300Y5875D01*
X13300Y5775D01*
X13375Y5700D01*
X13450Y5700D01*
X13500Y5750D01*
X13500Y5900D01*
X13550Y5950D01*
X13625Y5950D01*
X13700Y5875D01*
X13700Y5775D01*
X13625Y5700D01*
X13700Y6050D02*
X13300Y6050D01*
X13300Y6200D01*
X13350Y6250D01*
X13450Y6250D01*
X13500Y6200D01*
X13500Y6050D01*
X13650Y6350D02*
X13700Y6400D01*
X13700Y6525D01*
X13650Y6575D01*
X13550Y6575D01*
X13500Y6525D01*
X13500Y6400D01*
X13550Y6350D01*
X13650Y6350D01*
X13650Y6350D01*
X13500Y6525D02*
X13450Y6575D01*
X13350Y6575D01*
X13300Y6525D01*
X13300Y6400D01*
X13350Y6350D01*
X13450Y6350D01*
X13500Y6400D01*
X13375Y6675D02*
X13300Y6750D01*
X13300Y6825D01*
X13375Y6900D01*
X13475Y6900D01*
X13525Y6850D01*
X13525Y6725D01*
X13575Y6675D01*
X13700Y6675D01*
X13700Y6900D01*
X13300Y7075D02*
X13375Y7000D01*
X13650Y7000D01*
X13700Y7050D01*
X13700Y7175D01*
X13650Y7225D01*
X13550Y7225D01*
X13500Y7175D01*
X13500Y7050D01*
X13550Y7000D01*
X13300Y7400D02*
X13375Y7325D01*
X13650Y7325D01*
X13700Y7375D01*
X13700Y7500D01*
X13650Y7550D01*
X13550Y7550D01*
X13500Y7500D01*
X13500Y7375D01*
X13550Y7325D01*
X13525Y7650D02*
X13525Y7800D01*
X13700Y7900D02*
X13700Y8050D01*
X13700Y7975D02*
X13300Y7975D01*
X13350Y7900D01*
X13375Y8150D02*
X13300Y8225D01*
X13300Y8300D01*
X13375Y8375D01*
X13475Y8375D01*
X13525Y8325D01*
X13525Y8200D01*
X13575Y8150D01*
X13700Y8150D01*
X13700Y8375D01*
X13300Y8725D02*
X13300Y8475D01*
X13700Y8475D01*
X13700Y8725D01*
X13500Y8475D02*
X13500Y8625D01*
X7150Y5008D02*
X7150Y5192D01*
X7300Y4950D02*
X6900Y5100D01*
X7300Y5250D01*
X7300Y5350D02*
X6900Y5350D01*
X7300Y5600D01*
X6900Y5600D01*
X6900Y5700D02*
X6900Y6000D01*
X6900Y5850D02*
X7300Y5850D01*
X6900Y6350D02*
X6900Y6100D01*
X7300Y6100D01*
X7300Y6350D01*
X7100Y6100D02*
X7100Y6250D01*
X7300Y6450D02*
X6900Y6450D01*
X7300Y6700D01*
X6900Y6700D01*
X7300Y6800D02*
X6900Y6800D01*
X7300Y7050D01*
X6900Y7050D01*
X7150Y7208D02*
X7150Y7392D01*
X7300Y7150D02*
X6900Y7300D01*
X7300Y7450D01*
X6900Y7650D02*
X7300Y7650D01*
X6900Y7875D02*
X7300Y7875D01*
X7100Y7650D02*
X7100Y7875D01*
X6900Y8225D02*
X6900Y7975D01*
X7300Y7975D01*
X7300Y8225D01*
X7100Y7975D02*
X7100Y8125D01*
X7300Y8325D02*
X6900Y8325D01*
X6900Y8500D01*
X6975Y8575D01*
X7050Y8575D01*
X7125Y8500D01*
X7125Y8325D01*
X7125Y8500D02*
X7300Y8600D01*
X6900Y8950D02*
X6900Y8700D01*
X7300Y8700D01*
X7300Y8950D01*
X7100Y8700D02*
X7100Y8850D01*
G54D20*
X9450Y2700D02*
X9250Y2700D01*
X9250Y2788D01*
X9288Y2825D01*
X9325Y2825D01*
X9362Y2788D01*
X9362Y2700D01*
X9362Y2788D02*
X9450Y2838D01*
X9288Y3012D02*
X9250Y2975D01*
X9250Y2925D01*
X9288Y2888D01*
X9325Y2888D01*
X9350Y2912D01*
X9350Y2988D01*
X9375Y3012D01*
X9412Y3012D01*
X9450Y2975D01*
X9450Y2925D01*
X9412Y2888D01*
X9250Y3062D02*
X9250Y3212D01*
X9250Y3138D02*
X9450Y3138D01*
X10175Y2729D02*
X10175Y2821D01*
X10250Y2700D02*
X10050Y2775D01*
X10250Y2850D01*
X10250Y2900D02*
X10050Y2900D01*
X10050Y2988D01*
X10088Y3025D01*
X10212Y3025D01*
X10250Y2988D01*
X10250Y2900D01*
X10250Y2900D01*
X10088Y3212D02*
X10050Y3175D01*
X10050Y3112D01*
X10088Y3075D01*
X10212Y3075D01*
X10250Y3112D01*
X10250Y3175D01*
X10212Y3212D01*
X10850Y2825D02*
X10850Y2700D01*
X11050Y2700D01*
X11050Y2825D01*
X10950Y2700D02*
X10950Y2775D01*
X11050Y2875D02*
X10850Y2875D01*
X11050Y3000D01*
X10850Y3000D01*
X11675Y2825D02*
X11650Y2800D01*
X11650Y2725D01*
X11675Y2700D01*
X11825Y2700D01*
X11850Y2725D01*
X11850Y2800D01*
X11825Y2825D01*
X11750Y2825D01*
X11750Y2738D01*
X11850Y2875D02*
X11850Y2950D01*
X11850Y2912D02*
X11650Y2912D01*
X11675Y2875D01*
X11650Y3038D02*
X11688Y3000D01*
X11825Y3000D01*
X11850Y3025D01*
X11850Y3088D01*
X11825Y3112D01*
X11775Y3112D01*
X11750Y3088D01*
X11750Y3025D01*
X11775Y3000D01*
X12475Y2825D02*
X12450Y2800D01*
X12450Y2725D01*
X12475Y2700D01*
X12625Y2700D01*
X12650Y2725D01*
X12650Y2800D01*
X12625Y2825D01*
X12550Y2825D01*
X12550Y2738D01*
X12650Y2875D02*
X12650Y2950D01*
X12650Y2912D02*
X12450Y2912D01*
X12475Y2875D01*
X12450Y3000D02*
X12562Y3000D01*
X12562Y3100D01*
X12475Y3075D02*
X12650Y3075D01*
X13225Y2825D02*
X13200Y2800D01*
X13200Y2725D01*
X13225Y2700D01*
X13375Y2700D01*
X13400Y2725D01*
X13400Y2800D01*
X13375Y2825D01*
X13300Y2825D01*
X13300Y2738D01*
X13400Y2875D02*
X13400Y2950D01*
X13400Y2912D02*
X13200Y2912D01*
X13225Y2875D01*
X13238Y3000D02*
X13200Y3038D01*
X13200Y3075D01*
X13238Y3112D01*
X13288Y3112D01*
X13312Y3088D01*
X13312Y3025D01*
X13338Y3000D01*
X13400Y3000D01*
X13400Y3112D01*
X14025Y2825D02*
X14000Y2800D01*
X14000Y2725D01*
X14025Y2700D01*
X14175Y2700D01*
X14200Y2725D01*
X14200Y2800D01*
X14175Y2825D01*
X14100Y2825D01*
X14100Y2738D01*
X14200Y2875D02*
X14200Y2950D01*
X14200Y2912D02*
X14000Y2912D01*
X14025Y2875D01*
X14025Y3000D02*
X14000Y3025D01*
X14000Y3088D01*
X14025Y3112D01*
X14075Y3112D01*
X14100Y3088D01*
X14100Y3050D01*
X14100Y3088D02*
X14125Y3112D01*
X14175Y3112D01*
X14200Y3088D01*
X14200Y3025D01*
X14175Y3000D01*
X14800Y2700D02*
X15000Y2775D01*
X14800Y2850D01*
X14838Y3038D02*
X14800Y3000D01*
X14800Y2938D01*
X14838Y2900D01*
X14962Y2900D01*
X15000Y2938D01*
X15000Y3000D01*
X14962Y3038D01*
X14838Y3225D02*
X14800Y3188D01*
X14800Y3125D01*
X14838Y3088D01*
X14962Y3088D01*
X15000Y3125D01*
X15000Y3188D01*
X14962Y3225D01*
X9300Y10650D02*
X9300Y10800D01*
X9300Y10725D02*
X9500Y10725D01*
X9500Y10850D02*
X9388Y10925D01*
X9388Y10850D02*
X9500Y10925D01*
X10300Y10700D02*
X10100Y10700D01*
X10100Y10788D01*
X10138Y10825D01*
X10175Y10825D01*
X10212Y10788D01*
X10212Y10700D01*
X10212Y10788D02*
X10300Y10838D01*
X10300Y10888D02*
X10188Y10962D01*
X10188Y10888D02*
X10300Y10962D01*
X10925Y10825D02*
X10900Y10800D01*
X10900Y10725D01*
X10925Y10700D01*
X11075Y10700D01*
X11100Y10725D01*
X11100Y10800D01*
X11075Y10825D01*
X11000Y10825D01*
X11000Y10738D01*
X10900Y10975D02*
X10900Y10875D01*
X10988Y10875D01*
X10988Y10950D01*
X11012Y10975D01*
X11075Y10975D01*
X11100Y10950D01*
X11100Y10875D01*
X11725Y10825D02*
X11700Y10800D01*
X11700Y10725D01*
X11725Y10700D01*
X11875Y10700D01*
X11900Y10725D01*
X11900Y10800D01*
X11875Y10825D01*
X11800Y10825D01*
X11800Y10738D01*
X11700Y10875D02*
X11812Y10875D01*
X11812Y10975D01*
X11725Y10950D02*
X11900Y10950D01*
X12475Y10825D02*
X12450Y10800D01*
X12450Y10725D01*
X12475Y10700D01*
X12625Y10700D01*
X12650Y10725D01*
X12650Y10800D01*
X12625Y10825D01*
X12550Y10825D01*
X12550Y10738D01*
X12600Y10875D02*
X12625Y10888D01*
X12638Y10900D01*
X12650Y10925D01*
X12650Y10975D01*
X12638Y11000D01*
X12625Y11012D01*
X12600Y11025D01*
X12500Y11025D01*
X12475Y11012D01*
X12462Y11000D01*
X12450Y10975D01*
X12450Y10925D01*
X12462Y10900D01*
X12475Y10888D01*
X12500Y10875D01*
X12600Y10875D01*
X12600Y10875D01*
X12650Y10875D02*
X12450Y11025D01*
X13275Y10825D02*
X13250Y10800D01*
X13250Y10725D01*
X13275Y10700D01*
X13425Y10700D01*
X13450Y10725D01*
X13450Y10800D01*
X13425Y10825D01*
X13350Y10825D01*
X13350Y10738D01*
X13288Y10875D02*
X13250Y10912D01*
X13250Y10950D01*
X13288Y10988D01*
X13338Y10988D01*
X13362Y10962D01*
X13362Y10900D01*
X13388Y10875D01*
X13450Y10875D01*
X13450Y10988D01*
X14075Y10825D02*
X14050Y10800D01*
X14050Y10725D01*
X14075Y10700D01*
X14225Y10700D01*
X14250Y10725D01*
X14250Y10800D01*
X14225Y10825D01*
X14150Y10825D01*
X14150Y10738D01*
X14250Y10875D02*
X14250Y10950D01*
X14250Y10912D02*
X14050Y10912D01*
X14075Y10875D01*
X14050Y11100D02*
X14050Y11000D01*
X14138Y11000D01*
X14138Y11075D01*
X14162Y11100D01*
X14225Y11100D01*
X14250Y11075D01*
X14250Y11000D01*
X14825Y10825D02*
X14800Y10800D01*
X14800Y10725D01*
X14825Y10700D01*
X14975Y10700D01*
X15000Y10725D01*
X15000Y10800D01*
X14975Y10825D01*
X14900Y10825D01*
X14900Y10738D01*
X15000Y10875D02*
X14800Y10875D01*
X15000Y11000D01*
X14800Y11000D01*
X15000Y11050D02*
X14800Y11050D01*
X14800Y11138D01*
X14838Y11175D01*
X14962Y11175D01*
X15000Y11138D01*
X15000Y11050D01*
X15000Y11050D01*
X16138Y4962D02*
X16100Y5000D01*
X16038Y5000D01*
X16000Y4962D01*
X16000Y4838D01*
X16038Y4800D01*
X16100Y4800D01*
X16138Y4838D01*
X16312Y4962D02*
X16275Y5000D01*
X16225Y5000D01*
X16188Y4962D01*
X16188Y4925D01*
X16212Y4900D01*
X16288Y4900D01*
X16312Y4875D01*
X16312Y4838D01*
X16275Y4800D01*
X16225Y4800D01*
X16188Y4838D01*
X16362Y4850D02*
X16375Y4825D01*
X16388Y4812D01*
X16412Y4800D01*
X16462Y4800D01*
X16488Y4812D01*
X16500Y4825D01*
X16512Y4850D01*
X16512Y4950D01*
X16500Y4975D01*
X16488Y4988D01*
X16462Y5000D01*
X16412Y5000D01*
X16388Y4988D01*
X16375Y4975D01*
X16362Y4950D01*
X16362Y4850D01*
X16362Y4850D01*
X16362Y4800D02*
X16512Y5000D01*
X16000Y5600D02*
X16000Y5800D01*
X16062Y5662D01*
X16125Y5800D01*
X16125Y5600D01*
X16175Y5600D02*
X16250Y5600D01*
X16175Y5800D02*
X16250Y5800D01*
X16212Y5800D02*
X16212Y5600D01*
X16425Y5762D02*
X16388Y5800D01*
X16338Y5800D01*
X16300Y5762D01*
X16300Y5725D01*
X16325Y5700D01*
X16400Y5700D01*
X16425Y5675D01*
X16425Y5638D01*
X16388Y5600D01*
X16338Y5600D01*
X16300Y5638D01*
X16475Y5650D02*
X16475Y5775D01*
X16500Y5800D01*
X16588Y5800D01*
X16612Y5775D01*
X16612Y5625D01*
X16588Y5600D01*
X16500Y5600D01*
X16475Y5625D01*
X16475Y5650D01*
X16125Y6525D02*
X16100Y6550D01*
X16025Y6550D01*
X16000Y6525D01*
X16000Y6375D01*
X16025Y6350D01*
X16100Y6350D01*
X16125Y6375D01*
X16125Y6450D01*
X16038Y6450D01*
X16175Y6525D02*
X16200Y6550D01*
X16262Y6550D01*
X16288Y6525D01*
X16288Y6475D01*
X16262Y6450D01*
X16200Y6450D01*
X16175Y6475D01*
X16175Y6525D01*
X16175Y6525D01*
X16288Y6475D02*
X16288Y6350D01*
X16125Y7375D02*
X16100Y7400D01*
X16025Y7400D01*
X16000Y7375D01*
X16000Y7225D01*
X16025Y7200D01*
X16100Y7200D01*
X16125Y7225D01*
X16125Y7300D01*
X16038Y7300D01*
X16175Y7200D02*
X16250Y7200D01*
X16212Y7200D02*
X16212Y7400D01*
X16175Y7375D01*
X16300Y7250D02*
X16312Y7225D01*
X16325Y7212D01*
X16350Y7200D01*
X16400Y7200D01*
X16425Y7212D01*
X16438Y7225D01*
X16450Y7250D01*
X16450Y7350D01*
X16438Y7375D01*
X16425Y7388D01*
X16400Y7400D01*
X16350Y7400D01*
X16325Y7388D01*
X16312Y7375D01*
X16300Y7350D01*
X16300Y7250D01*
X16300Y7250D01*
X16300Y7200D02*
X16450Y7400D01*
X16000Y7950D02*
X16000Y8150D01*
X16062Y8012D01*
X16125Y8150D01*
X16125Y7950D01*
X16175Y8000D02*
X16175Y8125D01*
X16200Y8150D01*
X16288Y8150D01*
X16312Y8125D01*
X16312Y7975D01*
X16288Y7950D01*
X16200Y7950D01*
X16175Y7975D01*
X16175Y8000D01*
X16488Y8112D02*
X16450Y8150D01*
X16400Y8150D01*
X16362Y8112D01*
X16362Y8075D01*
X16388Y8050D01*
X16462Y8050D01*
X16488Y8025D01*
X16488Y7988D01*
X16450Y7950D01*
X16400Y7950D01*
X16362Y7988D01*
X16538Y7950D02*
X16612Y7950D01*
X16538Y8150D02*
X16612Y8150D01*
X16575Y8150D02*
X16575Y7950D01*
X16125Y8912D02*
X16088Y8950D01*
X16038Y8950D01*
X16000Y8912D01*
X16000Y8875D01*
X16025Y8850D01*
X16100Y8850D01*
X16125Y8825D01*
X16125Y8788D01*
X16088Y8750D01*
X16038Y8750D01*
X16000Y8788D01*
X16312Y8912D02*
X16275Y8950D01*
X16212Y8950D01*
X16175Y8912D01*
X16175Y8788D01*
X16212Y8750D01*
X16275Y8750D01*
X16312Y8788D01*
X16362Y8950D02*
X16362Y8750D01*
X16475Y8750D01*
X16525Y8750D02*
X16525Y8950D01*
X16612Y8950D02*
X16525Y8838D01*
X16625Y8750D01*
G54D22*
X6175Y2594D02*
X6700Y2594D01*
X6775Y2669D01*
X6775Y2931D01*
X6700Y3006D01*
X6175Y3006D01*
X6775Y3156D02*
X6775Y3381D01*
X6775Y3269D02*
X6175Y3269D01*
X6250Y3156D01*
G54D30*
X13750Y12500D02*
X14750Y12500D01*
X14750Y14500D01*
X13750Y14500D01*
X13750Y12500D01*
G54D14*
X15400Y12850D02*
X15000Y12850D01*
X15000Y13000D01*
X15050Y13050D01*
X15150Y13050D01*
X15200Y13000D01*
X15200Y12850D01*
X15400Y13150D02*
X15000Y13150D01*
X15000Y13325D01*
X15075Y13400D01*
X15150Y13400D01*
X15225Y13325D01*
X15225Y13150D01*
X15225Y13325D02*
X15400Y13425D01*
X15050Y13775D02*
X15000Y13725D01*
X15000Y13575D01*
X15050Y13525D01*
X15350Y13525D01*
X15400Y13575D01*
X15400Y13725D01*
X15350Y13775D01*
X15200Y13775D01*
X15200Y13600D01*
X15000Y14125D02*
X15000Y13875D01*
X15400Y13875D01*
X15400Y14125D01*
X15200Y13875D02*
X15200Y14025D01*
G54D30*
X14500Y12500D02*
X14750Y12750D01*
G54D14*
X13705Y13131D02*
X13305Y13131D01*
X13305Y13306D01*
X13380Y13381D01*
X13455Y13381D01*
X13530Y13306D01*
X13530Y13131D01*
X13530Y13306D02*
X13705Y13406D01*
X13705Y13506D02*
X13705Y13656D01*
X13705Y13581D02*
X13305Y13581D01*
X13355Y13506D01*
G54D30*
X16500Y12500D02*
X17500Y12500D01*
X17500Y15500D01*
X16500Y15500D01*
X16500Y12500D01*
G54D14*
X18150Y13100D02*
X17750Y13100D01*
X17750Y13250D01*
X17800Y13300D01*
X17900Y13300D01*
X17950Y13250D01*
X17950Y13100D01*
X18150Y13400D02*
X17750Y13400D01*
X17750Y13575D01*
X17825Y13650D01*
X17900Y13650D01*
X17975Y13575D01*
X17975Y13400D01*
X17975Y13575D02*
X18150Y13675D01*
X17800Y14025D02*
X17750Y13975D01*
X17750Y13825D01*
X17800Y13775D01*
X18100Y13775D01*
X18150Y13825D01*
X18150Y13975D01*
X18100Y14025D01*
X17950Y14025D01*
X17950Y13850D01*
G54D30*
X16500Y13500D02*
X17500Y13500D01*
G54D14*
X11955Y17325D02*
X11555Y17325D01*
X11555Y17500D01*
X11630Y17575D01*
X11705Y17575D01*
X11780Y17500D01*
X11780Y17325D01*
X11780Y17500D02*
X11955Y17600D01*
X11630Y17700D02*
X11555Y17775D01*
X11555Y17850D01*
X11630Y17925D01*
X11730Y17925D01*
X11780Y17875D01*
X11780Y17750D01*
X11830Y17700D01*
X11955Y17700D01*
X11955Y17925D01*
X16955Y17325D02*
X16555Y17325D01*
X16555Y17500D01*
X16630Y17575D01*
X16705Y17575D01*
X16780Y17500D01*
X16780Y17325D01*
X16780Y17500D02*
X16955Y17600D01*
X16605Y17700D02*
X16555Y17750D01*
X16555Y17875D01*
X16605Y17925D01*
X16705Y17925D01*
X16755Y17875D01*
X16755Y17800D01*
X16755Y17875D02*
X16805Y17925D01*
X16905Y17925D01*
X16955Y17875D01*
X16955Y17750D01*
X16905Y17700D01*
G54D30*
X11950Y23150D02*
X12350Y23150D01*
X12150Y22950D02*
X12150Y23350D01*
X12750Y22000D02*
X12750Y23000D01*
X13000Y22250D02*
X13000Y22750D01*
X13250Y22000D02*
X13250Y23000D01*
X13500Y22250D02*
X13500Y22750D01*
G54D22*
X13450Y20869D02*
X12850Y20869D01*
X12850Y21131D01*
X12925Y21206D01*
X13075Y21206D01*
X13150Y21131D01*
X13225Y21206D01*
X13375Y21206D01*
X13450Y21131D01*
X13450Y20869D01*
X13150Y21131D02*
X13150Y20869D01*
X13450Y21356D02*
X13450Y21581D01*
X13450Y21469D02*
X12850Y21469D01*
X12925Y21356D01*
G54D30*
X7250Y18500D02*
X7167Y18488D01*
X7084Y18472D01*
X7002Y18453D01*
X6920Y18430D01*
X6840Y18404D01*
X6761Y18375D01*
X6684Y18342D01*
X6607Y18307D01*
X6533Y18268D01*
X6459Y18226D01*
X6388Y18180D01*
X6319Y18132D01*
X6252Y18082D01*
X6187Y18028D01*
X6124Y17972D01*
X6064Y17913D01*
X6006Y17851D01*
X5951Y17787D01*
X5899Y17721D01*
X5849Y17653D01*
X5802Y17583D01*
X5759Y17511D01*
X5718Y17437D01*
X5680Y17362D01*
X5646Y17285D01*
X5615Y17206D01*
X5587Y17127D01*
X5563Y17046D01*
X5542Y16965D01*
X5524Y16882D01*
X5510Y16799D01*
X5499Y16715D01*
X5492Y16631D01*
X5489Y16547D01*
X5489Y16463D01*
X5492Y16379D01*
X5499Y16295D01*
X5510Y16211D01*
X5524Y16128D01*
X5541Y16045D01*
X5562Y15964D01*
X5586Y15883D01*
X5614Y15803D01*
X5645Y15725D01*
X5679Y15648D01*
X5717Y15573D01*
X5757Y15499D01*
X5801Y15427D01*
X5848Y15356D01*
X5897Y15288D01*
X5950Y15222D01*
X6005Y15158D01*
X6062Y15097D01*
X6123Y15038D01*
X6185Y14981D01*
X6250Y14928D01*
X6317Y14877D01*
X6386Y14829D01*
X6458Y14783D01*
X6531Y14741D01*
X6605Y14702D01*
X6681Y14666D01*
X6759Y14634D01*
X6838Y14604D01*
X6918Y14578D01*
X7000Y14555D01*
X7082Y14536D01*
X7164Y14520D01*
X7248Y14508D01*
X7332Y14499D01*
X7416Y14494D01*
X7500Y14492D01*
X7584Y14494D01*
X7668Y14499D01*
X7752Y14508D01*
X7836Y14520D01*
X7918Y14536D01*
X8000Y14555D01*
X8082Y14578D01*
X8162Y14604D01*
X8241Y14634D01*
X8319Y14666D01*
X8395Y14702D01*
X8469Y14741D01*
X8542Y14783D01*
X8614Y14829D01*
X8683Y14877D01*
X8750Y14928D01*
X8815Y14981D01*
X8877Y15038D01*
X8938Y15097D01*
X8995Y15158D01*
X9050Y15222D01*
X9103Y15288D01*
X9152Y15356D01*
X9199Y15427D01*
X9243Y15499D01*
X9283Y15573D01*
X9321Y15648D01*
X9355Y15725D01*
X9386Y15803D01*
X9414Y15883D01*
X9438Y15964D01*
X9459Y16045D01*
X9476Y16128D01*
X9490Y16211D01*
X9501Y16295D01*
X9508Y16379D01*
X9511Y16463D01*
X9511Y16547D01*
X9508Y16631D01*
X9501Y16715D01*
X9490Y16799D01*
X9476Y16882D01*
X9458Y16965D01*
X9437Y17046D01*
X9413Y17127D01*
X9385Y17206D01*
X9354Y17285D01*
X9320Y17362D01*
X9282Y17437D01*
X9241Y17511D01*
X9198Y17583D01*
X9151Y17653D01*
X9101Y17721D01*
X9049Y17787D01*
X8994Y17851D01*
X8936Y17913D01*
X8876Y17972D01*
X8813Y18028D01*
X8748Y18082D01*
X8681Y18132D01*
X8612Y18180D01*
X8541Y18226D01*
X8467Y18268D01*
X8393Y18307D01*
X8316Y18342D01*
X8239Y18375D01*
X8160Y18404D01*
X8080Y18430D01*
X7998Y18453D01*
X7916Y18472D01*
X7833Y18488D01*
X7750Y18500D01*
X7750Y18500D01*
X8350Y17200D02*
X8350Y17600D01*
X8550Y17400D02*
X8150Y17400D01*
G54D14*
X6406Y19000D02*
X6331Y18925D01*
X6331Y18800D01*
X6406Y18725D01*
X6656Y18725D01*
X6731Y18800D01*
X6731Y18925D01*
X6656Y19000D01*
X6731Y19100D02*
X6731Y19250D01*
X6731Y19175D02*
X6331Y19175D01*
X6381Y19100D01*
X16400Y12850D02*
X16000Y12850D01*
X16000Y13025D01*
X16075Y13100D01*
X16150Y13100D01*
X16225Y13025D01*
X16225Y12850D01*
X16225Y13025D02*
X16400Y13125D01*
X16000Y13850D02*
X16000Y14150D01*
X16000Y14000D02*
X16400Y14000D01*
X16050Y15100D02*
X16000Y15050D01*
X16000Y14900D01*
X16050Y14850D01*
X16350Y14850D01*
X16400Y14900D01*
X16400Y15050D01*
X16350Y15100D01*
X16200Y15100D01*
X16200Y14925D01*
G54D30*
X7200Y450D02*
X7200Y1250D01*
X7500Y1250D01*
X7600Y1150D01*
X7600Y950D01*
X7500Y850D01*
X7200Y850D01*
X8150Y800D02*
X8050Y900D01*
X7900Y900D01*
X7800Y800D01*
X7800Y550D01*
X7900Y450D01*
X8050Y450D01*
X8150Y550D01*
X8350Y450D02*
X8350Y1250D01*
X8350Y550D02*
X8450Y450D01*
X8600Y450D01*
X8700Y550D01*
X8700Y800D01*
X8600Y900D01*
X8450Y900D01*
X8350Y800D01*
X8900Y500D02*
X8950Y450D01*
X9000Y500D01*
X8950Y550D01*
X8900Y500D01*
X9200Y450D02*
X9200Y1250D01*
X9550Y1250D01*
X9700Y1100D01*
X9700Y950D01*
X9550Y800D01*
X9200Y800D01*
X9550Y800D02*
X9750Y450D01*
X10300Y550D02*
X10200Y450D01*
X10050Y450D01*
X9950Y550D01*
X9950Y800D01*
X10050Y900D01*
X10200Y900D01*
X10300Y800D01*
X10300Y700D01*
X9950Y700D01*
X10500Y900D02*
X10650Y450D01*
X10800Y900D01*
X11000Y500D02*
X11050Y450D01*
X11100Y500D01*
X11050Y550D01*
X11000Y500D01*
X11300Y450D02*
X11300Y1250D01*
X11650Y1250D01*
X11750Y1150D01*
X11750Y950D01*
X11650Y850D01*
X11750Y750D01*
X11750Y550D01*
X11650Y450D01*
X11300Y450D01*
X11650Y850D02*
X11300Y850D01*
M02*
