M48
M72, LZ
T1C0.1000
T2C0.0350
T3C0.0320
T4C0.0450
T5C0.0330
T6C0.0330
T7C0.0197
T8C0.0135
%
T1
X0.1575Y0.2475
X1.6925Y0.2475
X0.1575Y2.4525
X1.6925Y2.4525
T2
X1.4250Y1.3000
X1.7000Y1.3000
X1.2250Y2.2500
X1.4000Y2.2500
X0.8250Y1.6500
X0.6750Y1.6500
T3
X1.4250Y1.4000
X1.7000Y1.4000
X1.7000Y1.5000
T4
X0.5386Y1.8220
X0.5386Y2.0780
X0.3616Y1.8220
X0.3616Y2.0780
X0.5386Y0.6220
X0.5386Y0.8780
X0.3616Y0.6220
X0.3616Y0.8780
X1.1386Y1.2220
X1.1386Y1.4780
X0.9616Y1.2220
X0.9616Y1.4780
X0.5386Y1.2220
X0.5386Y1.4780
X0.3616Y1.2220
X0.3616Y1.4780
T5
X1.0000Y1.9500
X1.7000Y1.9500
T6
X1.1000Y1.9500
X1.6000Y1.9500
T7
X0.8484Y2.2500
X0.7500Y2.2500
X0.6516Y2.2500
T8
X1.2750Y1.6750
X1.2750Y2.0250
X0.8500Y0.4750
X1.0185Y1.0750
X0.9398Y1.1250
X1.0250Y1.3250
T00
M30
