G04 -- Generated By PCBWeb Designer*
%FSLAX24Y24*%
%MOIN*%
%OFA0B0*%
%SFA1.0B1.0*%
%AMROTRECT*21,1,$1,$2,0,0,$3*%
%AMROTOBLONG*1,1,$7,$1,$2*1,1,$7,$3,$4*21,1,$5,$6,0,0,$8*%
%ADD10C,0.025*%
%ADD11C,0.15*%
%ADD12C,0.1*%
%ADD13C,0.16*%
%ADD14C,0.005*%
%ADD15R,0.065X0.0394*%
%ADD16R,0.075X0.0494*%
%ADD17C,0.021*%
%ADD18R,0.0394X0.0866*%
%ADD19R,0.0494X0.0966*%
%ADD20C,0.002*%
%ADD21C,0.018*%
%ADD22C,0.008*%
%ADD23C,0.024*%
%ADD24R,0.055X0.055*%
%ADD25C,0.035*%
%ADD26R,0.065X0.065*%
%ADD27C,0.055*%
%ADD28C,0.032*%
%ADD29C,0.065*%
%ADD30C,0.01*%
%ADD31R,0.0591X0.0512*%
%ADD32R,0.0691X0.0612*%
%ADD33C,0.07*%
%ADD34C,0.045*%
%ADD35C,0.08*%
%ADD36C,0.033*%
%ADD37C,0.033*%
%ADD38C,0.026*%
%ADD39C,0.0394*%
%ADD40C,0.0197*%
%ADD41C,0.0494*%
%ADD42C,0.0059*%
%ADD43C,0.015*%
%ADD44C,0.0275*%
%ADD45C,0.0*%
G01*
%LNSTD*%
%LPD*%
G54D11*
X1575Y2475D03*
X16925Y2475D03*
X1575Y24525D03*
X16925Y24525D03*
G54D24*
X14250Y13000D03*
G54D27*
X14250Y14000D03*
G54D24*
X17000Y13000D03*
G54D27*
X17000Y14000D03*
X17000Y15000D03*
G54D33*
X5386Y18220D03*
X5386Y20780D03*
X3616Y18220D03*
X3616Y20780D03*
X5386Y6220D03*
X5386Y8780D03*
X3616Y6220D03*
X3616Y8780D03*
X11386Y12220D03*
X11386Y14780D03*
X9616Y12220D03*
X9616Y14780D03*
X5386Y12220D03*
X5386Y14780D03*
X3616Y12220D03*
X3616Y14780D03*
G54D24*
X10000Y19500D03*
G54D27*
X11000Y19500D03*
G54D24*
X17000Y19500D03*
G54D27*
X16000Y19500D03*
G54D24*
X12250Y22500D03*
G54D27*
X14000Y22500D03*
X8250Y16500D03*
X6750Y16500D03*
G54D39*
X8484Y22500D03*
X7500Y22500D03*
X6516Y22500D03*
G54D43*
X12750Y16750D02*
X12750Y20250D01*
G54D44*
X12750Y16750D03*
X12750Y20250D03*
G54D10*
X8250Y16500D02*
X8250Y5000D01*
X8500Y4750D01*
G54D44*
X8500Y4750D03*
G54D10*
X9616Y12220D02*
X9616Y14780D01*
G54D22*
X9616Y14780D02*
X9616Y14780D01*
G54D10*
X3600Y22900D02*
X4000Y23500D01*
X16500Y23500D01*
X17000Y23000D01*
X17000Y15000D01*
X9616Y14780D02*
X9616Y18500D01*
X10000Y19000D01*
X10000Y19500D01*
X3600Y16100D02*
X4000Y16500D01*
X6750Y16500D01*
X16925Y24525D02*
X16500Y23500D01*
X14500Y23500D02*
X14000Y23000D01*
X14000Y22500D01*
X17000Y15000D02*
X14500Y15000D01*
X14250Y14750D01*
X14250Y14000D01*
X1575Y2475D02*
X3250Y2475D01*
X3616Y2841D01*
X3616Y24000D01*
X3250Y24500D01*
X1750Y24500D01*
X10000Y19500D02*
X10000Y23000D01*
X9500Y23500D01*
X3250Y2500D02*
X3750Y1750D01*
X16250Y1750D01*
X16925Y2475D01*
G54D43*
X10185Y10750D02*
X10500Y11000D01*
G54D44*
X10185Y10750D03*
G54D43*
X10500Y11000D02*
X16750Y11000D01*
X17000Y11250D01*
X17000Y13000D01*
X17000Y13000D01*
X9398Y11250D02*
X9750Y11500D01*
G54D44*
X9398Y11250D03*
G54D43*
X9750Y11500D02*
X16000Y11500D01*
X16250Y11750D01*
X16250Y13750D01*
X16500Y14000D01*
X17000Y14000D01*
X17000Y14000D01*
X5386Y14780D02*
X5386Y12250D01*
G54D22*
X5386Y12250D02*
X5386Y12220D01*
G54D43*
X10250Y13250D02*
X11250Y13250D01*
G54D44*
X10250Y13250D03*
G54D43*
X11250Y13250D02*
X11386Y13114D01*
X11386Y12220D01*
%LNERASE*%
%LPC*%
G54D12*
X1575Y2475D03*
X16925Y2475D03*
X1575Y24525D03*
X16925Y24525D03*
G54D25*
X14250Y13000D03*
G54D28*
X14250Y14000D03*
G54D25*
X17000Y13000D03*
G54D28*
X17000Y14000D03*
X17000Y15000D03*
G54D34*
X5386Y18220D03*
X5386Y20780D03*
X3616Y18220D03*
X3616Y20780D03*
X5386Y6220D03*
X5386Y8780D03*
X3616Y6220D03*
X3616Y8780D03*
X11386Y12220D03*
X11386Y14780D03*
X9616Y12220D03*
X9616Y14780D03*
X5386Y12220D03*
X5386Y14780D03*
X3616Y12220D03*
X3616Y14780D03*
G54D36*
X10000Y19500D03*
G54D37*
X11000Y19500D03*
G54D36*
X17000Y19500D03*
G54D37*
X16000Y19500D03*
G54D25*
X12250Y22500D03*
X14000Y22500D03*
X8250Y16500D03*
X6750Y16500D03*
G54D40*
X8484Y22500D03*
X7500Y22500D03*
X6516Y22500D03*
M02*
