G04 -- Generated By PCBWeb Designer*
%FSLAX24Y24*%
%MOIN*%
%OFA0B0*%
%SFA1.0B1.0*%
%AMROTRECT*21,1,$1,$2,0,0,$3*%
%AMROTOBLONG*1,1,$7,$1,$2*1,1,$7,$3,$4*21,1,$5,$6,0,0,$8*%
%ADD10C,0.025*%
%ADD11C,0.15*%
%ADD12C,0.1*%
%ADD13C,0.16*%
%ADD14C,0.005*%
%ADD15R,0.065X0.0394*%
%ADD16R,0.075X0.0494*%
%ADD17C,0.021*%
%ADD18R,0.0394X0.0866*%
%ADD19R,0.0494X0.0966*%
%ADD20C,0.002*%
%ADD21C,0.018*%
%ADD22C,0.008*%
%ADD23C,0.024*%
%ADD24R,0.055X0.055*%
%ADD25C,0.035*%
%ADD26R,0.065X0.065*%
%ADD27C,0.055*%
%ADD28C,0.032*%
%ADD29C,0.065*%
%ADD30C,0.01*%
%ADD31R,0.0591X0.0512*%
%ADD32R,0.0691X0.0612*%
%ADD33C,0.07*%
%ADD34C,0.045*%
%ADD35C,0.08*%
%ADD36C,0.033*%
%ADD37C,0.033*%
%ADD38C,0.026*%
%ADD39C,0.0394*%
%ADD40C,0.0197*%
%ADD41C,0.0494*%
%ADD42C,0.0059*%
%ADD43C,0.015*%
%ADD44C,0.0275*%
%ADD45C,0.0*%
G01*
%LNERASE*%
%LPC*%
G54D23*
X2320Y20580D02*
X2920Y20580D01*
X2920Y20243D01*
X2320Y19718D02*
X2320Y20093D01*
X2920Y20093D01*
X2920Y19718D01*
X2620Y20093D02*
X2620Y19868D01*
X2320Y19193D02*
X2320Y19568D01*
X2920Y19568D01*
X2620Y19568D02*
X2620Y19343D01*
X2320Y19043D02*
X2320Y18593D01*
X2320Y18818D02*
X2920Y18818D01*
X2876Y8830D02*
X2276Y8830D01*
X2276Y8568D01*
X2388Y8455D01*
X2501Y8455D01*
X2613Y8568D01*
X2613Y8830D01*
X2613Y8568D02*
X2876Y8418D01*
X2876Y8268D02*
X2876Y8043D01*
X2276Y8268D02*
X2276Y8043D01*
X2276Y8155D02*
X2876Y8155D01*
X2351Y7518D02*
X2276Y7593D01*
X2276Y7818D01*
X2351Y7893D01*
X2801Y7893D01*
X2876Y7818D01*
X2876Y7593D01*
X2801Y7518D01*
X2576Y7518D01*
X2576Y7780D01*
X2276Y7368D02*
X2876Y7368D01*
X2276Y7030D02*
X2876Y7030D01*
X2576Y7368D02*
X2576Y7030D01*
X2276Y6880D02*
X2276Y6430D01*
X2276Y6655D02*
X2876Y6655D01*
X8913Y14830D02*
X8313Y14830D01*
X8313Y14568D01*
X8388Y14493D01*
X8538Y14493D01*
X8613Y14568D01*
X8688Y14493D01*
X8838Y14493D01*
X8913Y14568D01*
X8913Y14830D01*
X8613Y14568D02*
X8613Y14830D01*
X8913Y14343D02*
X8313Y14343D01*
X8313Y14080D01*
X8426Y13968D01*
X8538Y13968D01*
X8651Y14080D01*
X8651Y14343D01*
X8651Y14080D02*
X8913Y13930D01*
X8688Y13694D02*
X8688Y13417D01*
X8913Y13780D02*
X8313Y13555D01*
X8913Y13330D01*
X8913Y13180D02*
X8313Y13180D01*
X8313Y12918D02*
X8651Y13180D01*
X8913Y12880D01*
X8313Y12355D02*
X8313Y12730D01*
X8913Y12730D01*
X8913Y12355D01*
X8613Y12730D02*
X8613Y12505D01*
X2495Y14668D02*
X2382Y14780D01*
X2382Y14968D01*
X2495Y15080D01*
X2870Y15080D01*
X2982Y14968D01*
X2982Y14780D01*
X2870Y14668D01*
X2757Y14432D02*
X2757Y14154D01*
X2982Y14518D02*
X2382Y14293D01*
X2982Y14068D01*
X2982Y13918D02*
X2382Y13918D01*
X2982Y13543D01*
X2382Y13543D01*
X2495Y12980D02*
X2382Y13093D01*
X2382Y13280D01*
X2495Y13393D01*
X2870Y13393D01*
X2982Y13280D01*
X2982Y13093D01*
X2870Y12980D01*
X2382Y12455D02*
X2382Y12830D01*
X2982Y12830D01*
X2982Y12455D01*
X2682Y12830D02*
X2682Y12605D01*
X2382Y12305D02*
X2982Y12305D01*
X2982Y11968D01*
X8481Y20950D02*
X9081Y20950D01*
X9081Y20612D01*
X8856Y20376D02*
X8856Y20099D01*
X9081Y20462D02*
X8481Y20238D01*
X9081Y20012D01*
X8481Y19862D02*
X9081Y19862D01*
X9081Y19525D01*
X8856Y19289D02*
X8856Y19011D01*
X9081Y19375D02*
X8481Y19150D01*
X9081Y18925D01*
X9081Y18775D02*
X8481Y18775D01*
X8481Y18512D01*
X8594Y18400D01*
X8706Y18400D01*
X8819Y18512D01*
X8819Y18775D01*
X8819Y18512D02*
X9081Y18362D01*
X9081Y18212D02*
X8481Y18212D01*
X8894Y18025D01*
X8481Y17838D01*
X9081Y17838D01*
X14537Y21500D02*
X15137Y21500D01*
X15137Y21163D01*
X14912Y20926D02*
X14912Y20649D01*
X15137Y21013D02*
X14537Y20788D01*
X15137Y20563D01*
X14650Y20000D02*
X14537Y20113D01*
X14537Y20300D01*
X14650Y20413D01*
X15025Y20413D01*
X15137Y20300D01*
X15137Y20113D01*
X15025Y20000D01*
X14537Y19850D02*
X14537Y19400D01*
X14537Y19625D02*
X15137Y19625D01*
X15137Y19250D02*
X15137Y19025D01*
X14537Y19250D02*
X14537Y19025D01*
X14537Y19138D02*
X15137Y19138D01*
X14537Y18875D02*
X15137Y18650D01*
X14537Y18425D01*
X15137Y18275D02*
X15137Y18050D01*
X14537Y18275D02*
X14537Y18050D01*
X14537Y18163D02*
X15137Y18163D01*
X14537Y17900D02*
X14537Y17450D01*
X14537Y17675D02*
X15137Y17675D01*
X14837Y17075D02*
X14537Y16850D01*
X14537Y17300D02*
X14837Y17075D01*
X15137Y17075D01*
X7725Y23995D02*
X7838Y24108D01*
X7988Y24108D01*
X8100Y23995D01*
X8100Y23883D01*
X8025Y23808D01*
X7800Y23808D01*
X7725Y23733D01*
X7725Y23620D01*
X7838Y23508D01*
X7988Y23508D01*
X8100Y23620D01*
X7575Y24108D02*
X7462Y23508D01*
X7350Y24108D01*
X7238Y23508D01*
X7125Y24108D01*
X6975Y23508D02*
X6750Y23508D01*
X6862Y23508D02*
X6862Y24108D01*
X6975Y24033D01*
%LNSTD*%
%LPD*%
G54D30*
X5386Y20400D02*
X5386Y18610D01*
X3616Y18570D02*
X3616Y20420D01*
X5366Y19500D02*
X4786Y19500D01*
X3646Y19500D02*
X4216Y19500D01*
X4886Y19720D02*
X4116Y19720D01*
X4506Y19720D02*
X4506Y20120D01*
G54D22*
X2320Y20580D02*
X2920Y20580D01*
X2920Y20243D01*
X2320Y19718D02*
X2320Y20093D01*
X2920Y20093D01*
X2920Y19718D01*
X2620Y20093D02*
X2620Y19868D01*
X2320Y19193D02*
X2320Y19568D01*
X2920Y19568D01*
X2620Y19568D02*
X2620Y19343D01*
X2320Y19043D02*
X2320Y18593D01*
X2320Y18818D02*
X2920Y18818D01*
G54D30*
X5386Y8400D02*
X5386Y6610D01*
X3616Y6570D02*
X3616Y8420D01*
X5366Y7500D02*
X4786Y7500D01*
X3646Y7500D02*
X4216Y7500D01*
X4886Y7720D02*
X4116Y7720D01*
X4506Y7720D02*
X4506Y8120D01*
G54D22*
X2876Y8830D02*
X2276Y8830D01*
X2276Y8568D01*
X2388Y8455D01*
X2501Y8455D01*
X2613Y8568D01*
X2613Y8830D01*
X2613Y8568D02*
X2876Y8418D01*
X2876Y8268D02*
X2876Y8043D01*
X2276Y8268D02*
X2276Y8043D01*
X2276Y8155D02*
X2876Y8155D01*
X2351Y7518D02*
X2276Y7593D01*
X2276Y7818D01*
X2351Y7893D01*
X2801Y7893D01*
X2876Y7818D01*
X2876Y7593D01*
X2801Y7518D01*
X2576Y7518D01*
X2576Y7780D01*
X2276Y7368D02*
X2876Y7368D01*
X2276Y7030D02*
X2876Y7030D01*
X2576Y7368D02*
X2576Y7030D01*
X2276Y6880D02*
X2276Y6430D01*
X2276Y6655D02*
X2876Y6655D01*
G54D30*
X11386Y14400D02*
X11386Y12610D01*
X9616Y12570D02*
X9616Y14420D01*
X11366Y13500D02*
X10786Y13500D01*
X9646Y13500D02*
X10216Y13500D01*
X10886Y13720D02*
X10116Y13720D01*
X10506Y13720D02*
X10506Y14120D01*
G54D22*
X8913Y14830D02*
X8313Y14830D01*
X8313Y14568D01*
X8388Y14493D01*
X8538Y14493D01*
X8613Y14568D01*
X8688Y14493D01*
X8838Y14493D01*
X8913Y14568D01*
X8913Y14830D01*
X8613Y14568D02*
X8613Y14830D01*
X8913Y14343D02*
X8313Y14343D01*
X8313Y14080D01*
X8426Y13968D01*
X8538Y13968D01*
X8651Y14080D01*
X8651Y14343D01*
X8651Y14080D02*
X8913Y13930D01*
X8688Y13694D02*
X8688Y13417D01*
X8913Y13780D02*
X8313Y13555D01*
X8913Y13330D01*
X8913Y13180D02*
X8313Y13180D01*
X8313Y12918D02*
X8651Y13180D01*
X8913Y12880D01*
X8313Y12355D02*
X8313Y12730D01*
X8913Y12730D01*
X8913Y12355D01*
X8613Y12730D02*
X8613Y12505D01*
G54D30*
X5386Y14400D02*
X5386Y12610D01*
X3616Y12570D02*
X3616Y14420D01*
X5366Y13500D02*
X4786Y13500D01*
X3646Y13500D02*
X4216Y13500D01*
X4886Y13720D02*
X4116Y13720D01*
X4506Y13720D02*
X4506Y14120D01*
G54D22*
X2495Y14668D02*
X2382Y14780D01*
X2382Y14968D01*
X2495Y15080D01*
X2870Y15080D01*
X2982Y14968D01*
X2982Y14780D01*
X2870Y14668D01*
X2757Y14432D02*
X2757Y14154D01*
X2982Y14518D02*
X2382Y14293D01*
X2982Y14068D01*
X2982Y13918D02*
X2382Y13918D01*
X2982Y13543D01*
X2382Y13543D01*
X2495Y12980D02*
X2382Y13093D01*
X2382Y13280D01*
X2495Y13393D01*
X2870Y13393D01*
X2982Y13280D01*
X2982Y13093D01*
X2870Y12980D01*
X2382Y12455D02*
X2382Y12830D01*
X2982Y12830D01*
X2982Y12455D01*
X2682Y12830D02*
X2682Y12605D01*
X2382Y12305D02*
X2982Y12305D01*
X2982Y11968D01*
G54D30*
X9500Y19000D02*
X9522Y18960D01*
X9545Y18920D01*
X9570Y18882D01*
X9597Y18845D01*
X9625Y18809D01*
X9655Y18774D01*
X9686Y18740D01*
X9719Y18708D01*
X9753Y18677D01*
X9788Y18648D01*
X9824Y18620D01*
X9862Y18594D01*
X9900Y18569D01*
X9940Y18546D01*
X9981Y18525D01*
X10022Y18505D01*
X10064Y18487D01*
X10107Y18471D01*
X10150Y18456D01*
X10195Y18444D01*
X10239Y18433D01*
X10284Y18425D01*
X10329Y18418D01*
X10375Y18413D01*
X10421Y18410D01*
X10466Y18409D01*
X10512Y18409D01*
X10558Y18412D01*
X10604Y18417D01*
X10649Y18423D01*
X10694Y18432D01*
X10739Y18442D01*
X10783Y18454D01*
X10826Y18468D01*
X10869Y18484D01*
X10912Y18502D01*
X10953Y18521D01*
X10994Y18542D01*
X11033Y18565D01*
X11072Y18590D01*
X11110Y18616D01*
X11146Y18643D01*
X11182Y18672D01*
X11216Y18703D01*
X11249Y18735D01*
X11280Y18768D01*
X11310Y18803D01*
X11339Y18839D01*
X11366Y18876D01*
X11391Y18914D01*
X11415Y18953D01*
X11437Y18993D01*
X11457Y19034D01*
X11476Y19076D01*
X11493Y19119D01*
X11508Y19162D01*
X11521Y19206D01*
X11533Y19250D01*
X11542Y19295D01*
X11550Y19340D01*
X11556Y19386D01*
X11559Y19431D01*
X11561Y19477D01*
X11561Y19523D01*
X11559Y19569D01*
X11556Y19614D01*
X11550Y19660D01*
X11542Y19705D01*
X11533Y19750D01*
X11521Y19794D01*
X11508Y19838D01*
X11493Y19881D01*
X11476Y19924D01*
X11457Y19966D01*
X11437Y20007D01*
X11415Y20047D01*
X11391Y20086D01*
X11366Y20124D01*
X11339Y20161D01*
X11310Y20197D01*
X11280Y20232D01*
X11249Y20265D01*
X11216Y20297D01*
X11182Y20328D01*
X11146Y20357D01*
X11110Y20384D01*
X11072Y20410D01*
X11033Y20435D01*
X10994Y20458D01*
X10953Y20479D01*
X10912Y20498D01*
X10869Y20516D01*
X10826Y20532D01*
X10783Y20546D01*
X10739Y20558D01*
X10694Y20568D01*
X10649Y20577D01*
X10604Y20583D01*
X10558Y20588D01*
X10512Y20591D01*
X10466Y20591D01*
X10421Y20590D01*
X10375Y20587D01*
X10329Y20582D01*
X10284Y20575D01*
X10239Y20567D01*
X10195Y20556D01*
X10150Y20544D01*
X10107Y20529D01*
X10064Y20513D01*
X10022Y20495D01*
X9981Y20475D01*
X9940Y20454D01*
X9900Y20431D01*
X9862Y20406D01*
X9824Y20380D01*
X9788Y20352D01*
X9753Y20323D01*
X9719Y20292D01*
X9686Y20260D01*
X9655Y20226D01*
X9625Y20191D01*
X9597Y20155D01*
X9570Y20118D01*
X9545Y20080D01*
X9522Y20040D01*
X9500Y20000D01*
X9500Y20000D01*
X9500Y19000D01*
G54D22*
X8481Y20950D02*
X9081Y20950D01*
X9081Y20612D01*
X8856Y20376D02*
X8856Y20099D01*
X9081Y20462D02*
X8481Y20238D01*
X9081Y20012D01*
X8481Y19862D02*
X9081Y19862D01*
X9081Y19525D01*
X8856Y19289D02*
X8856Y19011D01*
X9081Y19375D02*
X8481Y19150D01*
X9081Y18925D01*
X9081Y18775D02*
X8481Y18775D01*
X8481Y18512D01*
X8594Y18400D01*
X8706Y18400D01*
X8819Y18512D01*
X8819Y18775D01*
X8819Y18512D02*
X9081Y18362D01*
X9081Y18212D02*
X8481Y18212D01*
X8894Y18025D01*
X8481Y17838D01*
X9081Y17838D01*
G54D30*
X17500Y20000D02*
X17478Y20040D01*
X17455Y20080D01*
X17430Y20118D01*
X17403Y20155D01*
X17375Y20191D01*
X17345Y20226D01*
X17314Y20260D01*
X17281Y20292D01*
X17247Y20323D01*
X17212Y20352D01*
X17176Y20380D01*
X17138Y20406D01*
X17100Y20431D01*
X17060Y20454D01*
X17019Y20475D01*
X16978Y20495D01*
X16936Y20513D01*
X16893Y20529D01*
X16850Y20544D01*
X16805Y20556D01*
X16761Y20567D01*
X16716Y20575D01*
X16671Y20582D01*
X16625Y20587D01*
X16579Y20590D01*
X16534Y20591D01*
X16488Y20591D01*
X16442Y20588D01*
X16396Y20583D01*
X16351Y20577D01*
X16306Y20568D01*
X16261Y20558D01*
X16217Y20546D01*
X16174Y20532D01*
X16131Y20516D01*
X16088Y20498D01*
X16047Y20479D01*
X16006Y20458D01*
X15967Y20435D01*
X15928Y20410D01*
X15890Y20384D01*
X15854Y20357D01*
X15818Y20328D01*
X15784Y20297D01*
X15751Y20265D01*
X15720Y20232D01*
X15690Y20197D01*
X15661Y20161D01*
X15634Y20124D01*
X15609Y20086D01*
X15585Y20047D01*
X15563Y20007D01*
X15543Y19966D01*
X15524Y19924D01*
X15507Y19881D01*
X15492Y19838D01*
X15479Y19794D01*
X15467Y19750D01*
X15458Y19705D01*
X15450Y19660D01*
X15444Y19614D01*
X15441Y19569D01*
X15439Y19523D01*
X15439Y19477D01*
X15441Y19431D01*
X15444Y19386D01*
X15450Y19340D01*
X15458Y19295D01*
X15467Y19250D01*
X15479Y19206D01*
X15492Y19162D01*
X15507Y19119D01*
X15524Y19076D01*
X15543Y19034D01*
X15563Y18993D01*
X15585Y18953D01*
X15609Y18914D01*
X15634Y18876D01*
X15661Y18839D01*
X15690Y18803D01*
X15720Y18768D01*
X15751Y18735D01*
X15784Y18703D01*
X15818Y18672D01*
X15854Y18643D01*
X15890Y18616D01*
X15928Y18590D01*
X15967Y18565D01*
X16006Y18542D01*
X16047Y18521D01*
X16088Y18502D01*
X16131Y18484D01*
X16174Y18468D01*
X16217Y18454D01*
X16261Y18442D01*
X16306Y18432D01*
X16351Y18423D01*
X16396Y18417D01*
X16442Y18412D01*
X16488Y18409D01*
X16534Y18409D01*
X16579Y18410D01*
X16625Y18413D01*
X16671Y18418D01*
X16716Y18425D01*
X16761Y18433D01*
X16805Y18444D01*
X16850Y18456D01*
X16893Y18471D01*
X16936Y18487D01*
X16978Y18505D01*
X17019Y18525D01*
X17060Y18546D01*
X17100Y18569D01*
X17138Y18594D01*
X17176Y18620D01*
X17212Y18648D01*
X17247Y18677D01*
X17281Y18708D01*
X17314Y18740D01*
X17345Y18774D01*
X17375Y18809D01*
X17403Y18845D01*
X17430Y18882D01*
X17455Y18920D01*
X17478Y18960D01*
X17500Y19000D01*
X17500Y19000D01*
X17500Y20000D01*
G54D22*
X14537Y21500D02*
X15137Y21500D01*
X15137Y21163D01*
X14912Y20926D02*
X14912Y20649D01*
X15137Y21013D02*
X14537Y20788D01*
X15137Y20563D01*
X14650Y20000D02*
X14537Y20113D01*
X14537Y20300D01*
X14650Y20413D01*
X15025Y20413D01*
X15137Y20300D01*
X15137Y20113D01*
X15025Y20000D01*
X14537Y19850D02*
X14537Y19400D01*
X14537Y19625D02*
X15137Y19625D01*
X15137Y19250D02*
X15137Y19025D01*
X14537Y19250D02*
X14537Y19025D01*
X14537Y19138D02*
X15137Y19138D01*
X14537Y18875D02*
X15137Y18650D01*
X14537Y18425D01*
X15137Y18275D02*
X15137Y18050D01*
X14537Y18275D02*
X14537Y18050D01*
X14537Y18163D02*
X15137Y18163D01*
X14537Y17900D02*
X14537Y17450D01*
X14537Y17675D02*
X15137Y17675D01*
X14837Y17075D02*
X14537Y16850D01*
X14537Y17300D02*
X14837Y17075D01*
X15137Y17075D01*
G54D42*
X9173Y21772D02*
X9173Y21772D01*
X9173Y23209D01*
X5827Y23228D01*
X5827Y21772D01*
X9173Y21772D01*
G54D22*
X7725Y23995D02*
X7838Y24108D01*
X7988Y24108D01*
X8100Y23995D01*
X8100Y23883D01*
X8025Y23808D01*
X7800Y23808D01*
X7725Y23733D01*
X7725Y23620D01*
X7838Y23508D01*
X7988Y23508D01*
X8100Y23620D01*
X7575Y24108D02*
X7462Y23508D01*
X7350Y24108D01*
X7238Y23508D01*
X7125Y24108D01*
X6975Y23508D02*
X6750Y23508D01*
X6862Y23508D02*
X6862Y24108D01*
X6975Y24033D01*
M02*
